<svg id="visual" viewBox="0 0 960 540" width="960" height="540" xmlns="http://www.w3.org/2000/svg" xmlns:xlink="http://www.w3.org/1999/xlink" version="1.1"><rect x="0" y="0" width="960" height="540" fill="#6a6a6a"></rect><path d="M0 228L8.8 234C17.7 240 35.3 252 53.2 256.7C71 261.3 89 258.7 106.8 254.5C124.7 250.3 142.3 244.7 160 254.3C177.7 264 195.3 289 213.2 291.3C231 293.7 249 273.3 266.8 263.7C284.7 254 302.3 255 320 261.8C337.7 268.7 355.3 281.3 373.2 273.3C391 265.3 409 236.7 426.8 223.5C444.7 210.3 462.3 212.7 480 214.2C497.7 215.7 515.3 216.3 533.2 224.5C551 232.7 569 248.3 586.8 270C604.7 291.7 622.3 319.3 640 318.3C657.7 317.3 675.3 287.7 693.2 280.7C711 273.7 729 289.3 746.8 291C764.7 292.7 782.3 280.3 800 274.3C817.7 268.3 835.3 268.7 853.2 259.7C871 250.7 889 232.3 906.8 223.5C924.7 214.7 942.3 215.3 951.2 215.7L960 216L960 541L951.2 541C942.3 541 924.7 541 906.8 541C889 541 871 541 853.2 541C835.3 541 817.7 541 800 541C782.3 541 764.7 541 746.8 541C729 541 711 541 693.2 541C675.3 541 657.7 541 640 541C622.3 541 604.7 541 586.8 541C569 541 551 541 533.2 541C515.3 541 497.7 541 480 541C462.3 541 444.7 541 426.8 541C409 541 391 541 373.2 541C355.3 541 337.7 541 320 541C302.3 541 284.7 541 266.8 541C249 541 231 541 213.2 541C195.3 541 177.7 541 160 541C142.3 541 124.7 541 106.8 541C89 541 71 541 53.2 541C35.3 541 17.7 541 8.8 541L0 541Z" fill="#060606"></path><path d="M0 332L8.8 339.3C17.7 346.7 35.3 361.3 53.2 347C71 332.7 89 289.3 106.8 269C124.7 248.7 142.3 251.3 160 261C177.7 270.7 195.3 287.3 213.2 299.8C231 312.3 249 320.7 266.8 313.8C284.7 307 302.3 285 320 282.3C337.7 279.7 355.3 296.3 373.2 310.5C391 324.7 409 336.3 426.8 326.2C444.7 316 462.3 284 480 278.5C497.7 273 515.3 294 533.2 294.3C551 294.7 569 274.3 586.8 270.7C604.7 267 622.3 280 640 299.7C657.7 319.3 675.3 345.7 693.2 337.3C711 329 729 286 746.8 279.8C764.7 273.7 782.3 304.3 800 312.2C817.7 320 835.3 305 853.2 300.5C871 296 889 302 906.8 308.3C924.7 314.7 942.3 321.3 951.2 324.7L960 328L960 541L951.2 541C942.3 541 924.7 541 906.8 541C889 541 871 541 853.2 541C835.3 541 817.7 541 800 541C782.3 541 764.7 541 746.8 541C729 541 711 541 693.2 541C675.3 541 657.7 541 640 541C622.3 541 604.7 541 586.8 541C569 541 551 541 533.2 541C515.3 541 497.7 541 480 541C462.3 541 444.7 541 426.8 541C409 541 391 541 373.2 541C355.3 541 337.7 541 320 541C302.3 541 284.7 541 266.8 541C249 541 231 541 213.2 541C195.3 541 177.7 541 160 541C142.3 541 124.7 541 106.8 541C89 541 71 541 53.2 541C35.3 541 17.7 541 8.8 541L0 541Z" fill="#1a1a1a"></path><path d="M0 289L8.8 300.3C17.7 311.7 35.3 334.3 53.2 335.7C71 337 89 317 106.8 307.3C124.7 297.7 142.3 298.3 160 303.3C177.7 308.3 195.3 317.7 213.2 330.5C231 343.3 249 359.7 266.8 353C284.7 346.3 302.3 316.7 320 301C337.7 285.3 355.3 283.7 373.2 286.5C391 289.3 409 296.7 426.8 299.8C444.7 303 462.3 302 480 310.8C497.7 319.7 515.3 338.3 533.2 341.7C551 345 569 333 586.8 320C604.7 307 622.3 293 640 293.7C657.7 294.3 675.3 309.7 693.2 323.2C711 336.7 729 348.3 746.8 340.7C764.7 333 782.3 306 800 299.5C817.7 293 835.3 307 853.2 326.5C871 346 889 371 906.8 373C924.7 375 942.3 354 951.2 343.5L960 333L960 541L951.2 541C942.3 541 924.7 541 906.8 541C889 541 871 541 853.2 541C835.3 541 817.7 541 800 541C782.3 541 764.7 541 746.8 541C729 541 711 541 693.2 541C675.3 541 657.7 541 640 541C622.3 541 604.7 541 586.8 541C569 541 551 541 533.2 541C515.3 541 497.7 541 480 541C462.3 541 444.7 541 426.8 541C409 541 391 541 373.2 541C355.3 541 337.7 541 320 541C302.3 541 284.7 541 266.8 541C249 541 231 541 213.2 541C195.3 541 177.7 541 160 541C142.3 541 124.7 541 106.8 541C89 541 71 541 53.2 541C35.3 541 17.7 541 8.8 541L0 541Z" fill="#2a2a2a"></path><path d="M0 325L8.8 333.5C17.7 342 35.3 359 53.2 358.3C71 357.7 89 339.3 106.8 338.8C124.7 338.3 142.3 355.7 160 356.5C177.7 357.3 195.3 341.7 213.2 332.3C231 323 249 320 266.8 330.8C284.7 341.7 302.3 366.3 320 369.8C337.7 373.3 355.3 355.7 373.2 351.5C391 347.3 409 356.7 426.8 362.8C444.7 369 462.3 372 480 371.3C497.7 370.7 515.3 366.3 533.2 367.7C551 369 569 376 586.8 367.7C604.7 359.3 622.3 335.7 640 339C657.7 342.3 675.3 372.7 693.2 372.2C711 371.7 729 340.3 746.8 326C764.7 311.7 782.3 314.3 800 331.5C817.7 348.7 835.3 380.3 853.2 380.8C871 381.3 889 350.7 906.8 338.5C924.7 326.3 942.3 332.7 951.2 335.8L960 339L960 541L951.2 541C942.3 541 924.7 541 906.8 541C889 541 871 541 853.2 541C835.3 541 817.7 541 800 541C782.3 541 764.7 541 746.8 541C729 541 711 541 693.2 541C675.3 541 657.7 541 640 541C622.3 541 604.7 541 586.8 541C569 541 551 541 533.2 541C515.3 541 497.7 541 480 541C462.3 541 444.7 541 426.8 541C409 541 391 541 373.2 541C355.3 541 337.7 541 320 541C302.3 541 284.7 541 266.8 541C249 541 231 541 213.2 541C195.3 541 177.7 541 160 541C142.3 541 124.7 541 106.8 541C89 541 71 541 53.2 541C35.3 541 17.7 541 8.8 541L0 541Z" fill="#3b3b3b"></path><path d="M0 419L8.8 418.7C17.7 418.3 35.3 417.7 53.2 410.8C71 404 89 391 106.8 387C124.7 383 142.3 388 160 398.5C177.7 409 195.3 425 213.2 429.5C231 434 249 427 266.8 413.8C284.7 400.7 302.3 381.3 320 380.7C337.7 380 355.3 398 373.2 401.7C391 405.3 409 394.7 426.8 397.2C444.7 399.7 462.3 415.3 480 410.2C497.7 405 515.3 379 533.2 377.5C551 376 569 399 586.8 406.2C604.7 413.3 622.3 404.7 640 404C657.7 403.3 675.3 410.7 693.2 413.3C711 416 729 414 746.8 417C764.7 420 782.3 428 800 417.8C817.7 407.7 835.3 379.3 853.2 367.5C871 355.7 889 360.3 906.8 363C924.7 365.7 942.3 366.3 951.2 366.7L960 367L960 541L951.2 541C942.3 541 924.7 541 906.8 541C889 541 871 541 853.2 541C835.3 541 817.7 541 800 541C782.3 541 764.7 541 746.8 541C729 541 711 541 693.2 541C675.3 541 657.7 541 640 541C622.3 541 604.7 541 586.8 541C569 541 551 541 533.2 541C515.3 541 497.7 541 480 541C462.3 541 444.7 541 426.8 541C409 541 391 541 373.2 541C355.3 541 337.7 541 320 541C302.3 541 284.7 541 266.8 541C249 541 231 541 213.2 541C195.3 541 177.7 541 160 541C142.3 541 124.7 541 106.8 541C89 541 71 541 53.2 541C35.3 541 17.7 541 8.8 541L0 541Z" fill="#4d4d4d"></path><path d="M0 398L8.8 400.7C17.7 403.3 35.3 408.7 53.2 412.3C71 416 89 418 106.8 417.2C124.7 416.3 142.3 412.7 160 407.7C177.7 402.7 195.3 396.3 213.2 405.3C231 414.3 249 438.7 266.8 448.2C284.7 457.7 302.3 452.3 320 444.3C337.7 436.3 355.3 425.7 373.2 415.8C391 406 409 397 426.8 398.2C444.7 399.3 462.3 410.7 480 415.7C497.7 420.7 515.3 419.3 533.2 424.3C551 429.3 569 440.7 586.8 449.2C604.7 457.7 622.3 463.3 640 459.8C657.7 456.3 675.3 443.7 693.2 435.3C711 427 729 423 746.8 429.2C764.7 435.3 782.3 451.7 800 450.7C817.7 449.7 835.3 431.3 853.2 425.8C871 420.3 889 427.7 906.8 432.2C924.7 436.7 942.3 438.3 951.2 439.2L960 440L960 541L951.2 541C942.3 541 924.7 541 906.8 541C889 541 871 541 853.2 541C835.3 541 817.7 541 800 541C782.3 541 764.7 541 746.8 541C729 541 711 541 693.2 541C675.3 541 657.7 541 640 541C622.3 541 604.7 541 586.8 541C569 541 551 541 533.2 541C515.3 541 497.7 541 480 541C462.3 541 444.7 541 426.8 541C409 541 391 541 373.2 541C355.3 541 337.7 541 320 541C302.3 541 284.7 541 266.8 541C249 541 231 541 213.2 541C195.3 541 177.7 541 160 541C142.3 541 124.7 541 106.8 541C89 541 71 541 53.2 541C35.3 541 17.7 541 8.8 541L0 541Z" fill="#606060"></path><path d="M0 437L8.8 436.2C17.7 435.3 35.3 433.7 53.2 442.3C71 451 89 470 106.8 479.5C124.7 489 142.3 489 160 481C177.7 473 195.3 457 213.2 452.5C231 448 249 455 266.8 455.2C284.7 455.3 302.3 448.7 320 448.7C337.7 448.7 355.3 455.3 373.2 453.7C391 452 409 442 426.8 439C444.7 436 462.3 440 480 446.2C497.7 452.3 515.3 460.7 533.2 461C551 461.3 569 453.7 586.8 453.3C604.7 453 622.3 460 640 467.7C657.7 475.3 675.3 483.7 693.2 484.3C711 485 729 478 746.8 472.5C764.7 467 782.3 463 800 458.8C817.7 454.7 835.3 450.3 853.2 449.3C871 448.3 889 450.7 906.8 451.8C924.7 453 942.3 453 951.2 453L960 453L960 541L951.2 541C942.3 541 924.7 541 906.8 541C889 541 871 541 853.2 541C835.3 541 817.7 541 800 541C782.3 541 764.7 541 746.8 541C729 541 711 541 693.2 541C675.3 541 657.7 541 640 541C622.3 541 604.7 541 586.8 541C569 541 551 541 533.2 541C515.3 541 497.7 541 480 541C462.3 541 444.7 541 426.8 541C409 541 391 541 373.2 541C355.3 541 337.7 541 320 541C302.3 541 284.7 541 266.8 541C249 541 231 541 213.2 541C195.3 541 177.7 541 160 541C142.3 541 124.7 541 106.8 541C89 541 71 541 53.2 541C35.3 541 17.7 541 8.8 541L0 541Z" fill="#737373"></path><path d="M0 487L8.8 490.3C17.7 493.7 35.3 500.3 53.2 498.3C71 496.3 89 485.7 106.8 486.5C124.7 487.3 142.3 499.7 160 502C177.7 504.3 195.3 496.7 213.2 490C231 483.3 249 477.7 266.8 477C284.7 476.3 302.3 480.7 320 483.5C337.7 486.3 355.3 487.7 373.2 486C391 484.3 409 479.7 426.8 477.8C444.7 476 462.3 477 480 480.5C497.7 484 515.3 490 533.2 489.8C551 489.7 569 483.3 586.8 486.5C604.7 489.7 622.3 502.3 640 505C657.7 507.7 675.3 500.3 693.2 493.7C711 487 729 481 746.8 481.8C764.7 482.7 782.3 490.3 800 496.5C817.7 502.7 835.3 507.3 853.2 504C871 500.7 889 489.3 906.8 487.3C924.7 485.3 942.3 492.7 951.2 496.3L960 500L960 541L951.2 541C942.3 541 924.7 541 906.8 541C889 541 871 541 853.2 541C835.3 541 817.7 541 800 541C782.3 541 764.7 541 746.8 541C729 541 711 541 693.2 541C675.3 541 657.7 541 640 541C622.3 541 604.7 541 586.8 541C569 541 551 541 533.2 541C515.3 541 497.7 541 480 541C462.3 541 444.7 541 426.8 541C409 541 391 541 373.2 541C355.3 541 337.7 541 320 541C302.3 541 284.7 541 266.8 541C249 541 231 541 213.2 541C195.3 541 177.7 541 160 541C142.3 541 124.7 541 106.8 541C89 541 71 541 53.2 541C35.3 541 17.7 541 8.8 541L0 541Z" fill="#878787"></path></svg>