<svg id="visual" viewBox="0 0 900 600" width="900" height="600" xmlns="http://www.w3.org/2000/svg" xmlns:xlink="http://www.w3.org/1999/xlink" version="1.1"><g stroke-width="1" stroke-linejoin="bevel"><path d="M451 283L440 257.1L433 266.3Z" fill="#161616" stroke="#161616"></path><path d="M426 311.7L458 310.9L451 283Z" fill="#5e5e5e" stroke="#5e5e5e"></path><path d="M433 266.3L426 311.7L451 283Z" fill="#2c2c2c" stroke="#2c2c2c"></path><path d="M440 257.1L398 248L433 266.3Z" fill="#878787" stroke="#878787"></path><path d="M433 266.3L398 248L426 311.7Z" fill="#060606" stroke="#060606"></path><path d="M398 248L393 248.3L426 311.7Z" fill="#161616" stroke="#161616"></path><path d="M440 257.1L399 231.3L398 248Z" fill="#444444" stroke="#444444"></path><path d="M398 248L389 244.1L393 248.3Z" fill="#6b6b6b" stroke="#6b6b6b"></path><path d="M399 231.3L389 244.1L398 248Z" fill="#797979" stroke="#797979"></path><path d="M393 248.3L410 341.9L426 311.7Z" fill="#6b6b6b" stroke="#6b6b6b"></path><path d="M535 282.9L499 217.4L451 283Z" fill="#6b6b6b" stroke="#6b6b6b"></path><path d="M451 283L499 217.4L440 257.1Z" fill="#161616" stroke="#161616"></path><path d="M440 257.1L432 194.6L399 231.3Z" fill="#878787" stroke="#878787"></path><path d="M498 337.1L495 325.7L458 310.9Z" fill="#6b6b6b" stroke="#6b6b6b"></path><path d="M458 310.9L495 325.7L451 283Z" fill="#212121" stroke="#212121"></path><path d="M444 192.1L432 194.6L440 257.1Z" fill="#212121" stroke="#212121"></path><path d="M499 217.4L444 192.1L440 257.1Z" fill="#5e5e5e" stroke="#5e5e5e"></path><path d="M372 364.7L410 341.9L308 300Z" fill="#444444" stroke="#444444"></path><path d="M426 311.7L410 341.9L458 310.9Z" fill="#161616" stroke="#161616"></path><path d="M490 378.7L498 337.1L458 310.9Z" fill="#2c2c2c" stroke="#2c2c2c"></path><path d="M495 325.7L535 282.9L451 283Z" fill="#212121" stroke="#212121"></path><path d="M547 326.7L535 282.9L495 325.7Z" fill="#161616" stroke="#161616"></path><path d="M399 231.3L368 212.6L389 244.1Z" fill="#2c2c2c" stroke="#2c2c2c"></path><path d="M308 300L410 341.9L393 248.3Z" fill="#383838" stroke="#383838"></path><path d="M406 175.3L368 212.6L399 231.3Z" fill="#515151" stroke="#515151"></path><path d="M535 282.9L545 261L499 217.4Z" fill="#444444" stroke="#444444"></path><path d="M444 192.1L406 175.3L432 194.6Z" fill="#444444" stroke="#444444"></path><path d="M432 194.6L406 175.3L399 231.3Z" fill="#6b6b6b" stroke="#6b6b6b"></path><path d="M302 161.6L349 215L368 212.6Z" fill="#161616" stroke="#161616"></path><path d="M368 212.6L349 215L389 244.1Z" fill="#161616" stroke="#161616"></path><path d="M576 248L557 240.3L545 261Z" fill="#383838" stroke="#383838"></path><path d="M545 261L557 240.3L499 217.4Z" fill="#444444" stroke="#444444"></path><path d="M499 217.4L503 155.4L444 192.1Z" fill="#161616" stroke="#161616"></path><path d="M444 192.1L433 122.9L406 175.3Z" fill="#212121" stroke="#212121"></path><path d="M498 337.1L547 326.7L495 325.7Z" fill="#878787" stroke="#878787"></path><path d="M593 281.3L576 248L545 261Z" fill="#797979" stroke="#797979"></path><path d="M410 341.9L490 378.7L458 310.9Z" fill="#797979" stroke="#797979"></path><path d="M498 337.1L562 390L547 326.7Z" fill="#5e5e5e" stroke="#5e5e5e"></path><path d="M557 240.3L554 218.3L499 217.4Z" fill="#383838" stroke="#383838"></path><path d="M308 300L393 248.3L389 244.1Z" fill="#2c2c2c" stroke="#2c2c2c"></path><path d="M410 341.9L422 400.6L490 378.7Z" fill="#212121" stroke="#212121"></path><path d="M554 218.3L503 155.4L499 217.4Z" fill="#060606" stroke="#060606"></path><path d="M593 281.3L545 261L535 282.9Z" fill="#2c2c2c" stroke="#2c2c2c"></path><path d="M557 240.3L576 248L554 218.3Z" fill="#5e5e5e" stroke="#5e5e5e"></path><path d="M559 127.9L503 149.6L503 155.4Z" fill="#2c2c2c" stroke="#2c2c2c"></path><path d="M503 155.4L433 122.9L444 192.1Z" fill="#444444" stroke="#444444"></path><path d="M434 422.4L496 392.9L490 378.7Z" fill="#878787" stroke="#878787"></path><path d="M490 378.7L562 390L498 337.1Z" fill="#515151" stroke="#515151"></path><path d="M372 364.7L422 400.6L410 341.9Z" fill="#6b6b6b" stroke="#6b6b6b"></path><path d="M587 311.7L579 311L603 333.1Z" fill="#444444" stroke="#444444"></path><path d="M547 326.7L579 311L535 282.9Z" fill="#515151" stroke="#515151"></path><path d="M349 215L308 300L389 244.1Z" fill="#5e5e5e" stroke="#5e5e5e"></path><path d="M277 383.4L366 390.6L372 364.7Z" fill="#797979" stroke="#797979"></path><path d="M372 364.7L366 390.6L422 400.6Z" fill="#878787" stroke="#878787"></path><path d="M603 333.1L579 311L547 326.7Z" fill="#6b6b6b" stroke="#6b6b6b"></path><path d="M579 311L593 281.3L535 282.9Z" fill="#515151" stroke="#515151"></path><path d="M587 311.7L593 281.3L579 311Z" fill="#515151" stroke="#515151"></path><path d="M503 149.6L433 122.9L503 155.4Z" fill="#383838" stroke="#383838"></path><path d="M406 175.3L302 161.6L368 212.6Z" fill="#444444" stroke="#444444"></path><path d="M426 429.4L434 422.4L422 400.6Z" fill="#2c2c2c" stroke="#2c2c2c"></path><path d="M422 400.6L434 422.4L490 378.7Z" fill="#383838" stroke="#383838"></path><path d="M576 248L591 209.1L554 218.3Z" fill="#212121" stroke="#212121"></path><path d="M554 218.3L582 181.6L503 155.4Z" fill="#515151" stroke="#515151"></path><path d="M612 198.6L591 209.1L616 208.4Z" fill="#5e5e5e" stroke="#5e5e5e"></path><path d="M361 418.4L426 429.4L422 400.6Z" fill="#515151" stroke="#515151"></path><path d="M568 456.3L566 435.4L529 483.1Z" fill="#2c2c2c" stroke="#2c2c2c"></path><path d="M591 209.1L582 181.6L554 218.3Z" fill="#6b6b6b" stroke="#6b6b6b"></path><path d="M566 435.4L562 390L496 392.9Z" fill="#383838" stroke="#383838"></path><path d="M496 392.9L562 390L490 378.7Z" fill="#060606" stroke="#060606"></path><path d="M259 292.3L285 314L308 300Z" fill="#060606" stroke="#060606"></path><path d="M308 300L285 314L372 364.7Z" fill="#383838" stroke="#383838"></path><path d="M593 366.7L603 333.1L547 326.7Z" fill="#797979" stroke="#797979"></path><path d="M587 311.7L603 333.1L593 281.3Z" fill="#515151" stroke="#515151"></path><path d="M612 198.6L597 183.3L591 209.1Z" fill="#515151" stroke="#515151"></path><path d="M346 433.7L361 418.4L326 430.9Z" fill="#5e5e5e" stroke="#5e5e5e"></path><path d="M366 390.6L361 418.4L422 400.6Z" fill="#6b6b6b" stroke="#6b6b6b"></path><path d="M591 209.1L626 251L616 208.4Z" fill="#797979" stroke="#797979"></path><path d="M591 209.1L597 183.3L582 181.6Z" fill="#515151" stroke="#515151"></path><path d="M559 127.9L490 97.9L503 149.6Z" fill="#878787" stroke="#878787"></path><path d="M503 149.6L490 97.9L433 122.9Z" fill="#383838" stroke="#383838"></path><path d="M562 390L593 366.7L547 326.7Z" fill="#444444" stroke="#444444"></path><path d="M559 127.9L503 155.4L582 181.6Z" fill="#060606" stroke="#060606"></path><path d="M588 419.6L576 390.9L562 390Z" fill="#2c2c2c" stroke="#2c2c2c"></path><path d="M562 390L576 390.9L593 366.7Z" fill="#161616" stroke="#161616"></path><path d="M591 209.1L576 248L626 251Z" fill="#212121" stroke="#212121"></path><path d="M626 251L576 248L593 281.3Z" fill="#878787" stroke="#878787"></path><path d="M667 311.1L626 251L593 281.3Z" fill="#212121" stroke="#212121"></path><path d="M329 90.4L302 161.6L406 175.3Z" fill="#444444" stroke="#444444"></path><path d="M349 215L281 194.1L308 300Z" fill="#060606" stroke="#060606"></path><path d="M329 90.4L406 175.3L433 122.9Z" fill="#515151" stroke="#515151"></path><path d="M576 106.4L559 127.9L597 183.3Z" fill="#212121" stroke="#212121"></path><path d="M597 183.3L559 127.9L582 181.6Z" fill="#797979" stroke="#797979"></path><path d="M302 161.6L292 173.7L349 215Z" fill="#6b6b6b" stroke="#6b6b6b"></path><path d="M292 173.7L281 194.1L349 215Z" fill="#6b6b6b" stroke="#6b6b6b"></path><path d="M516 75.7L482 88.6L490 97.9Z" fill="#161616" stroke="#161616"></path><path d="M490 97.9L482 88.6L433 122.9Z" fill="#212121" stroke="#212121"></path><path d="M576 390.9L589 386.9L593 366.7Z" fill="#515151" stroke="#515151"></path><path d="M593 366.7L632 340.7L603 333.1Z" fill="#161616" stroke="#161616"></path><path d="M603 333.1L632 340.7L593 281.3Z" fill="#212121" stroke="#212121"></path><path d="M238 260.9L259 292.3L308 300Z" fill="#060606" stroke="#060606"></path><path d="M326 430.9L361 418.4L366 390.6Z" fill="#515151" stroke="#515151"></path><path d="M361 418.4L408 455.6L426 429.4Z" fill="#444444" stroke="#444444"></path><path d="M426 429.4L451 478.4L434 422.4Z" fill="#878787" stroke="#878787"></path><path d="M576 390.9L588 419.6L589 386.9Z" fill="#2c2c2c" stroke="#2c2c2c"></path><path d="M326 430.9L366 390.6L277 383.4Z" fill="#444444" stroke="#444444"></path><path d="M361 418.4L368 478.6L408 455.6Z" fill="#161616" stroke="#161616"></path><path d="M630 388.6L632 340.7L593 366.7Z" fill="#444444" stroke="#444444"></path><path d="M482 88.6L426 69.9L433 122.9Z" fill="#161616" stroke="#161616"></path><path d="M277 383.4L372 364.7L285 314Z" fill="#5e5e5e" stroke="#5e5e5e"></path><path d="M368 478.6L403 487.3L408 455.6Z" fill="#878787" stroke="#878787"></path><path d="M451 478.4L496 392.9L434 422.4Z" fill="#060606" stroke="#060606"></path><path d="M589 386.9L630 388.6L593 366.7Z" fill="#797979" stroke="#797979"></path><path d="M205 342.7L277 383.4L285 314Z" fill="#515151" stroke="#515151"></path><path d="M559 127.9L516 75.7L490 97.9Z" fill="#6b6b6b" stroke="#6b6b6b"></path><path d="M482 88.6L437 53.7L426 69.9Z" fill="#383838" stroke="#383838"></path><path d="M566 435.4L588 419.6L562 390Z" fill="#878787" stroke="#878787"></path><path d="M633 173.4L576 106.4L597 183.3Z" fill="#6b6b6b" stroke="#6b6b6b"></path><path d="M559 127.9L576 106.4L516 75.7Z" fill="#6b6b6b" stroke="#6b6b6b"></path><path d="M633 173.4L597 183.3L612 198.6Z" fill="#161616" stroke="#161616"></path><path d="M210 198.4L238 260.9L281 194.1Z" fill="#060606" stroke="#060606"></path><path d="M281 194.1L238 260.9L308 300Z" fill="#161616" stroke="#161616"></path><path d="M259 292.3L205 342.7L285 314Z" fill="#444444" stroke="#444444"></path><path d="M403 487.3L451 478.4L408 455.6Z" fill="#5e5e5e" stroke="#5e5e5e"></path><path d="M408 455.6L451 478.4L426 429.4Z" fill="#212121" stroke="#212121"></path><path d="M674 240.4L633 173.4L616 208.4Z" fill="#383838" stroke="#383838"></path><path d="M616 208.4L633 173.4L612 198.6Z" fill="#060606" stroke="#060606"></path><path d="M674 240.4L616 208.4L626 251Z" fill="#6b6b6b" stroke="#6b6b6b"></path><path d="M238 260.9L235 291L259 292.3Z" fill="#161616" stroke="#161616"></path><path d="M351 59.6L329 90.4L433 122.9Z" fill="#2c2c2c" stroke="#2c2c2c"></path><path d="M302 161.6L267 109.7L292 173.7Z" fill="#5e5e5e" stroke="#5e5e5e"></path><path d="M292 173.7L232 147.7L281 194.1Z" fill="#383838" stroke="#383838"></path><path d="M219 414.9L275 400.6L277 383.4Z" fill="#878787" stroke="#878787"></path><path d="M277 383.4L275 400.6L326 430.9Z" fill="#383838" stroke="#383838"></path><path d="M496 37.7L437 53.7L482 88.6Z" fill="#5e5e5e" stroke="#5e5e5e"></path><path d="M426 69.9L351 59.6L433 122.9Z" fill="#060606" stroke="#060606"></path><path d="M238 260.9L229 286.3L235 291Z" fill="#797979" stroke="#797979"></path><path d="M235 291L205 342.7L259 292.3Z" fill="#2c2c2c" stroke="#2c2c2c"></path><path d="M588 419.6L630 388.6L589 386.9Z" fill="#444444" stroke="#444444"></path><path d="M368 478.6L346 433.7L334 482.1Z" fill="#212121" stroke="#212121"></path><path d="M368 478.6L361 418.4L346 433.7Z" fill="#797979" stroke="#797979"></path><path d="M566 435.4L568 456.3L588 419.6Z" fill="#161616" stroke="#161616"></path><path d="M588 419.6L643 405.4L630 388.6Z" fill="#515151" stroke="#515151"></path><path d="M529 483.1L566 435.4L496 392.9Z" fill="#5e5e5e" stroke="#5e5e5e"></path><path d="M316 461.7L346 433.7L326 430.9Z" fill="#444444" stroke="#444444"></path><path d="M671 324.9L667 311.1L632 340.7Z" fill="#515151" stroke="#515151"></path><path d="M632 340.7L667 311.1L593 281.3Z" fill="#212121" stroke="#212121"></path><path d="M633 173.4L590 91.9L576 106.4Z" fill="#797979" stroke="#797979"></path><path d="M575 44.7L553 35.6L516 75.7Z" fill="#515151" stroke="#515151"></path><path d="M516 75.7L496 37.7L482 88.6Z" fill="#878787" stroke="#878787"></path><path d="M503 505.3L529 483.1L451 478.4Z" fill="#444444" stroke="#444444"></path><path d="M451 478.4L529 483.1L496 392.9Z" fill="#212121" stroke="#212121"></path><path d="M667 311.1L674 240.4L626 251Z" fill="#161616" stroke="#161616"></path><path d="M667 114.7L614 74.7L590 91.9Z" fill="#878787" stroke="#878787"></path><path d="M405 0L351 59.6L426 69.9Z" fill="#212121" stroke="#212121"></path><path d="M675 341.6L671 324.9L632 340.7Z" fill="#060606" stroke="#060606"></path><path d="M699 271L694 222.3L674 240.4Z" fill="#383838" stroke="#383838"></path><path d="M275 400.6L316 461.7L326 430.9Z" fill="#383838" stroke="#383838"></path><path d="M351 59.6L312 77.4L329 90.4Z" fill="#444444" stroke="#444444"></path><path d="M329 90.4L267 109.7L302 161.6Z" fill="#212121" stroke="#212121"></path><path d="M553 35.6L496 37.7L516 75.7Z" fill="#2c2c2c" stroke="#2c2c2c"></path><path d="M437 53.7L405 0L426 69.9Z" fill="#383838" stroke="#383838"></path><path d="M688 473.3L643 405.4L588 419.6Z" fill="#060606" stroke="#060606"></path><path d="M630 388.6L675 341.6L632 340.7Z" fill="#212121" stroke="#212121"></path><path d="M688 473.3L588 419.6L568 456.3Z" fill="#6b6b6b" stroke="#6b6b6b"></path><path d="M643 405.4L675 341.6L630 388.6Z" fill="#797979" stroke="#797979"></path><path d="M699 271L674 240.4L667 311.1Z" fill="#2c2c2c" stroke="#2c2c2c"></path><path d="M288 85.4L267 109.7L329 90.4Z" fill="#2c2c2c" stroke="#2c2c2c"></path><path d="M238 260.9L196 255.1L229 286.3Z" fill="#444444" stroke="#444444"></path><path d="M316 461.7L334 482.1L346 433.7Z" fill="#444444" stroke="#444444"></path><path d="M362 539.4L413 508.4L403 487.3Z" fill="#6b6b6b" stroke="#6b6b6b"></path><path d="M362 539.4L403 487.3L368 478.6Z" fill="#797979" stroke="#797979"></path><path d="M403 487.3L413 508.4L451 478.4Z" fill="#060606" stroke="#060606"></path><path d="M465 547.3L503 505.3L451 478.4Z" fill="#515151" stroke="#515151"></path><path d="M529 483.1L581 511.6L568 456.3Z" fill="#515151" stroke="#515151"></path><path d="M258 36.9L288 85.4L312 77.4Z" fill="#383838" stroke="#383838"></path><path d="M312 77.4L288 85.4L329 90.4Z" fill="#878787" stroke="#878787"></path><path d="M316 461.7L321 478.4L334 482.1Z" fill="#797979" stroke="#797979"></path><path d="M400 551.1L465 547.3L413 508.4Z" fill="#444444" stroke="#444444"></path><path d="M290 477.6L321 478.4L316 461.7Z" fill="#212121" stroke="#212121"></path><path d="M288 85.4L273 94.9L267 109.7Z" fill="#444444" stroke="#444444"></path><path d="M232 122.4L232 147.7L267 109.7Z" fill="#444444" stroke="#444444"></path><path d="M267 109.7L232 147.7L292 173.7Z" fill="#515151" stroke="#515151"></path><path d="M232 147.7L210 198.4L281 194.1Z" fill="#212121" stroke="#212121"></path><path d="M210 198.4L196 255.1L238 260.9Z" fill="#444444" stroke="#444444"></path><path d="M229 286.3L205 342.7L235 291Z" fill="#060606" stroke="#060606"></path><path d="M699 271L667 311.1L708 287.1Z" fill="#797979" stroke="#797979"></path><path d="M674 240.4L694 222.3L633 173.4Z" fill="#060606" stroke="#060606"></path><path d="M708 287.1L667 311.1L710 330.6Z" fill="#212121" stroke="#212121"></path><path d="M173 300.9L205 342.7L229 286.3Z" fill="#878787" stroke="#878787"></path><path d="M275 400.6L290 477.6L316 461.7Z" fill="#515151" stroke="#515151"></path><path d="M667 114.7L590 91.9L633 173.4Z" fill="#212121" stroke="#212121"></path><path d="M575 44.7L516 75.7L576 106.4Z" fill="#878787" stroke="#878787"></path><path d="M575 44.7L576 106.4L590 91.9Z" fill="#161616" stroke="#161616"></path><path d="M614 74.7L575 44.7L590 91.9Z" fill="#212121" stroke="#212121"></path><path d="M232 147.7L197 163.1L210 198.4Z" fill="#2c2c2c" stroke="#2c2c2c"></path><path d="M224 65.6L232 122.4L267 109.7Z" fill="#161616" stroke="#161616"></path><path d="M210 439.4L290 477.6L275 400.6Z" fill="#5e5e5e" stroke="#5e5e5e"></path><path d="M321 478.4L362 539.4L334 482.1Z" fill="#383838" stroke="#383838"></path><path d="M710 330.6L667 311.1L671 324.9Z" fill="#797979" stroke="#797979"></path><path d="M699 271L766 251.3L694 222.3Z" fill="#6b6b6b" stroke="#6b6b6b"></path><path d="M710 330.6L671 324.9L675 341.6Z" fill="#212121" stroke="#212121"></path><path d="M476 0L475 6.9L496 37.7Z" fill="#515151" stroke="#515151"></path><path d="M496 37.7L475 6.9L437 53.7Z" fill="#212121" stroke="#212121"></path><path d="M351 59.6L313 12.7L312 77.4Z" fill="#6b6b6b" stroke="#6b6b6b"></path><path d="M686 115.6L667 114.7L705 133.3Z" fill="#797979" stroke="#797979"></path><path d="M583 0L553 35.6L575 44.7Z" fill="#797979" stroke="#797979"></path><path d="M205 342.7L219 414.9L277 383.4Z" fill="#161616" stroke="#161616"></path><path d="M722 372L710 330.6L675 341.6Z" fill="#212121" stroke="#212121"></path><path d="M549 0L476 0L496 37.7Z" fill="#515151" stroke="#515151"></path><path d="M475 6.9L412 0L437 53.7Z" fill="#878787" stroke="#878787"></path><path d="M549 0L496 37.7L553 35.6Z" fill="#878787" stroke="#878787"></path><path d="M232 122.4L197 163.1L232 147.7Z" fill="#797979" stroke="#797979"></path><path d="M210 198.4L164 202.6L196 255.1Z" fill="#797979" stroke="#797979"></path><path d="M476 0L412 0L475 6.9Z" fill="#515151" stroke="#515151"></path><path d="M288 85.4L258 36.9L273 94.9Z" fill="#797979" stroke="#797979"></path><path d="M273 94.9L224 65.6L267 109.7Z" fill="#878787" stroke="#878787"></path><path d="M412 0L411 0L437 53.7Z" fill="#060606" stroke="#060606"></path><path d="M176 327.1L189 357L205 342.7Z" fill="#212121" stroke="#212121"></path><path d="M205 342.7L190 376.6L219 414.9Z" fill="#6b6b6b" stroke="#6b6b6b"></path><path d="M173 300.9L229 286.3L196 255.1Z" fill="#2c2c2c" stroke="#2c2c2c"></path><path d="M411 0L405 0L437 53.7Z" fill="#161616" stroke="#161616"></path><path d="M145 237.3L173 300.9L196 255.1Z" fill="#797979" stroke="#797979"></path><path d="M568 570.3L581 511.6L503 505.3Z" fill="#515151" stroke="#515151"></path><path d="M503 505.3L581 511.6L529 483.1Z" fill="#383838" stroke="#383838"></path><path d="M643 405.4L706 391.4L675 341.6Z" fill="#2c2c2c" stroke="#2c2c2c"></path><path d="M173 300.9L176 327.1L205 342.7Z" fill="#515151" stroke="#515151"></path><path d="M145 369L190 376.6L189 357Z" fill="#060606" stroke="#060606"></path><path d="M189 357L190 376.6L205 342.7Z" fill="#060606" stroke="#060606"></path><path d="M362 539.4L368 478.6L334 482.1Z" fill="#2c2c2c" stroke="#2c2c2c"></path><path d="M413 508.4L465 547.3L451 478.4Z" fill="#383838" stroke="#383838"></path><path d="M197 163.1L180 187.6L210 198.4Z" fill="#878787" stroke="#878787"></path><path d="M597 -57.1L405 0L411 0Z" fill="#515151" stroke="#515151"></path><path d="M597 -57.1L366 -1.3L405 0Z" fill="#797979" stroke="#797979"></path><path d="M405 0L366 -1.3L351 59.6Z" fill="#444444" stroke="#444444"></path><path d="M597 -57.1L411 0L412 0Z" fill="#060606" stroke="#060606"></path><path d="M336 579.3L362 539.4L321 478.4Z" fill="#515151" stroke="#515151"></path><path d="M705 133.3L667 114.7L633 173.4Z" fill="#383838" stroke="#383838"></path><path d="M667 114.7L655 0L614 74.7Z" fill="#515151" stroke="#515151"></path><path d="M705 133.3L633 173.4L694 222.3Z" fill="#5e5e5e" stroke="#5e5e5e"></path><path d="M362 539.4L400 551.1L413 508.4Z" fill="#060606" stroke="#060606"></path><path d="M688 473.3L706 391.4L643 405.4Z" fill="#6b6b6b" stroke="#6b6b6b"></path><path d="M583 0L575 44.7L609 0Z" fill="#5e5e5e" stroke="#5e5e5e"></path><path d="M583 0L549 0L553 35.6Z" fill="#2c2c2c" stroke="#2c2c2c"></path><path d="M476 0L597 -57.1L412 0Z" fill="#5e5e5e" stroke="#5e5e5e"></path><path d="M366 -1.3L342 0L351 59.6Z" fill="#060606" stroke="#060606"></path><path d="M340 0L313 12.7L351 59.6Z" fill="#212121" stroke="#212121"></path><path d="M232 122.4L135 139.9L197 163.1Z" fill="#444444" stroke="#444444"></path><path d="M366 -1.3L340 0L342 0Z" fill="#878787" stroke="#878787"></path><path d="M342 0L340 0L351 59.6Z" fill="#6b6b6b" stroke="#6b6b6b"></path><path d="M140 217.6L130 174.7L134 216.4Z" fill="#161616" stroke="#161616"></path><path d="M140 217.6L164 202.6L130 174.7Z" fill="#515151" stroke="#515151"></path><path d="M180 187.6L164 202.6L210 198.4Z" fill="#2c2c2c" stroke="#2c2c2c"></path><path d="M184 408.4L210 439.4L219 414.9Z" fill="#161616" stroke="#161616"></path><path d="M219 414.9L210 439.4L275 400.6Z" fill="#6b6b6b" stroke="#6b6b6b"></path><path d="M336 579.3L371 551.1L362 539.4Z" fill="#383838" stroke="#383838"></path><path d="M336 579.3L321 478.4L290 477.6Z" fill="#383838" stroke="#383838"></path><path d="M362 539.4L371 551.1L400 551.1Z" fill="#2c2c2c" stroke="#2c2c2c"></path><path d="M711 130.4L705 133.3L763 197.1Z" fill="#161616" stroke="#161616"></path><path d="M705 133.3L694 222.3L763 197.1Z" fill="#212121" stroke="#212121"></path><path d="M706 391.4L722 372L675 341.6Z" fill="#383838" stroke="#383838"></path><path d="M775 282L766 251.3L708 287.1Z" fill="#515151" stroke="#515151"></path><path d="M190 376.6L184 408.4L219 414.9Z" fill="#878787" stroke="#878787"></path><path d="M145 369L184 408.4L190 376.6Z" fill="#383838" stroke="#383838"></path><path d="M182 435.6L150 419.7L180 438.6Z" fill="#797979" stroke="#797979"></path><path d="M436 600L470 566.3L465 547.3Z" fill="#515151" stroke="#515151"></path><path d="M465 547.3L470 566.3L503 505.3Z" fill="#878787" stroke="#878787"></path><path d="M452 600L470 566.3L436 600Z" fill="#212121" stroke="#212121"></path><path d="M766 251.3L699 271L708 287.1Z" fill="#161616" stroke="#161616"></path><path d="M705 133.3L711 130.4L686 115.6Z" fill="#878787" stroke="#878787"></path><path d="M609 0L575 44.7L614 74.7Z" fill="#161616" stroke="#161616"></path><path d="M274 -0.1L258 36.9L313 12.7Z" fill="#2c2c2c" stroke="#2c2c2c"></path><path d="M313 12.7L258 36.9L312 77.4Z" fill="#6b6b6b" stroke="#6b6b6b"></path><path d="M258 36.9L224 65.6L273 94.9Z" fill="#383838" stroke="#383838"></path><path d="M609 0L614 74.7L655 0Z" fill="#161616" stroke="#161616"></path><path d="M549 0L597 -57.1L476 0Z" fill="#878787" stroke="#878787"></path><path d="M140 217.6L145 237.3L164 202.6Z" fill="#515151" stroke="#515151"></path><path d="M164 202.6L145 237.3L196 255.1Z" fill="#2c2c2c" stroke="#2c2c2c"></path><path d="M113 326.7L145 369L176 327.1Z" fill="#212121" stroke="#212121"></path><path d="M164 202.6L180 187.6L137 163.7Z" fill="#060606" stroke="#060606"></path><path d="M182 435.6L184 408.4L150 419.7Z" fill="#5e5e5e" stroke="#5e5e5e"></path><path d="M189 357L176 327.1L145 369Z" fill="#878787" stroke="#878787"></path><path d="M184 408.4L182 435.6L210 439.4Z" fill="#444444" stroke="#444444"></path><path d="M293 600L336 579.3L290 477.6Z" fill="#797979" stroke="#797979"></path><path d="M655 0L667 114.7L688 0.7Z" fill="#212121" stroke="#212121"></path><path d="M583 0L597 -57.1L549 0Z" fill="#797979" stroke="#797979"></path><path d="M176 327.1L173 300.9L113 326.7Z" fill="#878787" stroke="#878787"></path><path d="M182 435.6L180 438.6L210 439.4Z" fill="#383838" stroke="#383838"></path><path d="M709 538.1L688 473.3L581 511.6Z" fill="#060606" stroke="#060606"></path><path d="M581 511.6L688 473.3L568 456.3Z" fill="#5e5e5e" stroke="#5e5e5e"></path><path d="M706 391.4L743 388.4L722 372Z" fill="#161616" stroke="#161616"></path><path d="M137 163.7L180 187.6L197 163.1Z" fill="#444444" stroke="#444444"></path><path d="M140 217.6L134 216.4L145 237.3Z" fill="#797979" stroke="#797979"></path><path d="M113 326.7L173 300.9L110 320.9Z" fill="#2c2c2c" stroke="#2c2c2c"></path><path d="M745 464.1L743 388.4L706 391.4Z" fill="#383838" stroke="#383838"></path><path d="M722 372L767 333.1L710 330.6Z" fill="#2c2c2c" stroke="#2c2c2c"></path><path d="M767 333.1L708 287.1L710 330.6Z" fill="#515151" stroke="#515151"></path><path d="M258 36.9L186 14.7L224 65.6Z" fill="#515151" stroke="#515151"></path><path d="M340 0L274 -0.1L313 12.7Z" fill="#060606" stroke="#060606"></path><path d="M597 -57.1L274 -0.1L340 0Z" fill="#6b6b6b" stroke="#6b6b6b"></path><path d="M535 600L568 570.3L503 505.3Z" fill="#6b6b6b" stroke="#6b6b6b"></path><path d="M766 251.3L763 197.1L694 222.3Z" fill="#515151" stroke="#515151"></path><path d="M773 344.9L767 333.1L722 372Z" fill="#383838" stroke="#383838"></path><path d="M135 139.9L232 122.4L224 65.6Z" fill="#212121" stroke="#212121"></path><path d="M135 139.9L137 163.7L197 163.1Z" fill="#878787" stroke="#878787"></path><path d="M775 284.1L775 282L708 287.1Z" fill="#5e5e5e" stroke="#5e5e5e"></path><path d="M766 251.3L798 250L763 197.1Z" fill="#515151" stroke="#515151"></path><path d="M767 333.1L775 284.1L708 287.1Z" fill="#161616" stroke="#161616"></path><path d="M334 600L293 600L329 612.3Z" fill="#6b6b6b" stroke="#6b6b6b"></path><path d="M342 600L436 600L400 551.1Z" fill="#444444" stroke="#444444"></path><path d="M470 566.3L535 600L503 505.3Z" fill="#444444" stroke="#444444"></path><path d="M436 600L465 547.3L400 551.1Z" fill="#6b6b6b" stroke="#6b6b6b"></path><path d="M137 163.7L130 174.7L164 202.6Z" fill="#444444" stroke="#444444"></path><path d="M110 320.9L173 300.9L103 268.9Z" fill="#5e5e5e" stroke="#5e5e5e"></path><path d="M342 600L400 551.1L371 551.1Z" fill="#2c2c2c" stroke="#2c2c2c"></path><path d="M452 600L471 600L470 566.3Z" fill="#383838" stroke="#383838"></path><path d="M597 -57.1L254 0L274 -0.1Z" fill="#5e5e5e" stroke="#5e5e5e"></path><path d="M274 -0.1L254 0L258 36.9Z" fill="#060606" stroke="#060606"></path><path d="M145 369L150 419.7L184 408.4Z" fill="#797979" stroke="#797979"></path><path d="M334 600L342 600L336 579.3Z" fill="#212121" stroke="#212121"></path><path d="M743 388.4L773 344.9L722 372Z" fill="#878787" stroke="#878787"></path><path d="M767 333.1L800 319.9L775 284.1Z" fill="#383838" stroke="#383838"></path><path d="M790 419.9L773 344.9L743 388.4Z" fill="#878787" stroke="#878787"></path><path d="M114 132.9L135 139.9L119 118.6Z" fill="#161616" stroke="#161616"></path><path d="M137 163.7L109 140.3L130 174.7Z" fill="#212121" stroke="#212121"></path><path d="M173 300.9L145 237.3L103 268.9Z" fill="#5e5e5e" stroke="#5e5e5e"></path><path d="M145 369L125 402.4L150 419.7Z" fill="#5e5e5e" stroke="#5e5e5e"></path><path d="M103 268.9L145 237.3L103 262.9Z" fill="#515151" stroke="#515151"></path><path d="M113 326.7L113 351.9L145 369Z" fill="#5e5e5e" stroke="#5e5e5e"></path><path d="M732 80.7L667 114.7L686 115.6Z" fill="#2c2c2c" stroke="#2c2c2c"></path><path d="M609 0L597 -57.1L583 0Z" fill="#797979" stroke="#797979"></path><path d="M732 80.7L686 115.6L711 130.4Z" fill="#2c2c2c" stroke="#2c2c2c"></path><path d="M471 600L518 603.1L470 566.3Z" fill="#5e5e5e" stroke="#5e5e5e"></path><path d="M507 641.1L518 603.1L471 600Z" fill="#060606" stroke="#060606"></path><path d="M507 641.1L471 600L452 600Z" fill="#2c2c2c" stroke="#2c2c2c"></path><path d="M518 603.1L535 600L470 566.3Z" fill="#5e5e5e" stroke="#5e5e5e"></path><path d="M568 570.3L624 600L581 511.6Z" fill="#878787" stroke="#878787"></path><path d="M770 140.6L732 80.7L711 130.4Z" fill="#797979" stroke="#797979"></path><path d="M106 345L113 351.9L113 326.7Z" fill="#444444" stroke="#444444"></path><path d="M103 262.9L134 216.4L95 215.4Z" fill="#2c2c2c" stroke="#2c2c2c"></path><path d="M103 262.9L145 237.3L134 216.4Z" fill="#515151" stroke="#515151"></path><path d="M110 320.9L106 345L113 326.7Z" fill="#5e5e5e" stroke="#5e5e5e"></path><path d="M95 215.4L134 216.4L88 197.1Z" fill="#878787" stroke="#878787"></path><path d="M290 477.6L210 439.4L172 487.3Z" fill="#797979" stroke="#797979"></path><path d="M336 579.3L342 600L371 551.1Z" fill="#444444" stroke="#444444"></path><path d="M436 600L507 641.1L452 600Z" fill="#444444" stroke="#444444"></path><path d="M763 197.1L770 140.6L711 130.4Z" fill="#444444" stroke="#444444"></path><path d="M821 161.1L770 140.6L763 197.1Z" fill="#444444" stroke="#444444"></path><path d="M113 351.9L125 402.4L145 369Z" fill="#2c2c2c" stroke="#2c2c2c"></path><path d="M172 487.3L210 439.4L180 438.6Z" fill="#2c2c2c" stroke="#2c2c2c"></path><path d="M94 298.7L106 345L110 320.9Z" fill="#444444" stroke="#444444"></path><path d="M56 387.6L101 421.4L125 402.4Z" fill="#5e5e5e" stroke="#5e5e5e"></path><path d="M172 487.3L180 438.6L134 436.7Z" fill="#060606" stroke="#060606"></path><path d="M342 600L329 612.3L436 600Z" fill="#515151" stroke="#515151"></path><path d="M134 436.7L180 438.6L150 419.7Z" fill="#515151" stroke="#515151"></path><path d="M578 609.1L565 600L586 637.1Z" fill="#6b6b6b" stroke="#6b6b6b"></path><path d="M535 600L565 600L568 570.3Z" fill="#6b6b6b" stroke="#6b6b6b"></path><path d="M775 284.1L798 250L775 282Z" fill="#060606" stroke="#060606"></path><path d="M775 282L798 250L766 251.3Z" fill="#6b6b6b" stroke="#6b6b6b"></path><path d="M800 319.9L798 250L775 284.1Z" fill="#515151" stroke="#515151"></path><path d="M103 268.9L94 298.7L110 320.9Z" fill="#797979" stroke="#797979"></path><path d="M47 296.3L94 298.7L103 268.9Z" fill="#444444" stroke="#444444"></path><path d="M101 421.4L134 436.7L125 402.4Z" fill="#878787" stroke="#878787"></path><path d="M125 402.4L134 436.7L150 419.7Z" fill="#797979" stroke="#797979"></path><path d="M329 612.3L333 606.1L334 600Z" fill="#212121" stroke="#212121"></path><path d="M334 600L333 606.1L342 600Z" fill="#515151" stroke="#515151"></path><path d="M88 197.1L134 216.4L130 174.7Z" fill="#797979" stroke="#797979"></path><path d="M45 248.1L47 296.3L103 268.9Z" fill="#797979" stroke="#797979"></path><path d="M737 492.4L745 464.1L688 473.3Z" fill="#2c2c2c" stroke="#2c2c2c"></path><path d="M688 473.3L745 464.1L706 391.4Z" fill="#878787" stroke="#878787"></path><path d="M773 344.9L800 319.9L767 333.1Z" fill="#515151" stroke="#515151"></path><path d="M823 376.6L800 319.9L773 344.9Z" fill="#2c2c2c" stroke="#2c2c2c"></path><path d="M655 0L597 -57.1L609 0Z" fill="#6b6b6b" stroke="#6b6b6b"></path><path d="M366 -1.3L597 -57.1L340 0Z" fill="#515151" stroke="#515151"></path><path d="M119 118.6L135 139.9L224 65.6Z" fill="#2c2c2c" stroke="#2c2c2c"></path><path d="M135 139.9L109 140.3L137 163.7Z" fill="#444444" stroke="#444444"></path><path d="M186 14.7L119 118.6L224 65.6Z" fill="#161616" stroke="#161616"></path><path d="M732 80.7L688 0.7L667 114.7Z" fill="#878787" stroke="#878787"></path><path d="M655 0L688 0.7L597 -57.1Z" fill="#444444" stroke="#444444"></path><path d="M696 0L688 0.7L732 80.7Z" fill="#797979" stroke="#797979"></path><path d="M97 105.9L109 140.3L114 132.9Z" fill="#797979" stroke="#797979"></path><path d="M114 132.9L109 140.3L135 139.9Z" fill="#878787" stroke="#878787"></path><path d="M293 600L334 600L336 579.3Z" fill="#383838" stroke="#383838"></path><path d="M333 606.1L329 612.3L342 600Z" fill="#2c2c2c" stroke="#2c2c2c"></path><path d="M586 637.1L565 600L535 600Z" fill="#515151" stroke="#515151"></path><path d="M565 600L578 609.1L568 570.3Z" fill="#5e5e5e" stroke="#5e5e5e"></path><path d="M507 641.1L535 600L518 603.1Z" fill="#383838" stroke="#383838"></path><path d="M218 600L293 600L290 477.6Z" fill="#161616" stroke="#161616"></path><path d="M254 0L186 14.7L258 36.9Z" fill="#444444" stroke="#444444"></path><path d="M88 194.4L88 197.1L130 174.7Z" fill="#878787" stroke="#878787"></path><path d="M95 215.4L61 220.1L103 262.9Z" fill="#161616" stroke="#161616"></path><path d="M726 526.6L737 492.4L688 473.3Z" fill="#5e5e5e" stroke="#5e5e5e"></path><path d="M745 464.1L790 419.9L743 388.4Z" fill="#212121" stroke="#212121"></path><path d="M109 140.3L88 194.4L130 174.7Z" fill="#060606" stroke="#060606"></path><path d="M727 -16.1L696 0L732 80.7Z" fill="#515151" stroke="#515151"></path><path d="M688 0.7L727 -16.1L597 -57.1Z" fill="#161616" stroke="#161616"></path><path d="M811 432.7L790 419.9L817 456.7Z" fill="#797979" stroke="#797979"></path><path d="M578 609.1L624 600L568 570.3Z" fill="#161616" stroke="#161616"></path><path d="M624 600L709 538.1L581 511.6Z" fill="#6b6b6b" stroke="#6b6b6b"></path><path d="M817 456.7L790 419.9L745 464.1Z" fill="#2c2c2c" stroke="#2c2c2c"></path><path d="M329 612.3L507 641.1L436 600Z" fill="#797979" stroke="#797979"></path><path d="M578 609.1L586 637.1L624 600Z" fill="#383838" stroke="#383838"></path><path d="M92 533.3L155 556.3L172 487.3Z" fill="#161616" stroke="#161616"></path><path d="M218 600L296 631.1L293 600Z" fill="#2c2c2c" stroke="#2c2c2c"></path><path d="M86 425.3L101 421.4L56 387.6Z" fill="#797979" stroke="#797979"></path><path d="M125 402.4L113 351.9L56 387.6Z" fill="#383838" stroke="#383838"></path><path d="M113 351.9L106 345L56 387.6Z" fill="#6b6b6b" stroke="#6b6b6b"></path><path d="M721 543.4L726 526.6L709 538.1Z" fill="#444444" stroke="#444444"></path><path d="M709 538.1L726 526.6L688 473.3Z" fill="#797979" stroke="#797979"></path><path d="M119 118.6L97 105.9L114 132.9Z" fill="#161616" stroke="#161616"></path><path d="M109 140.3L3 153.3L88 194.4Z" fill="#6b6b6b" stroke="#6b6b6b"></path><path d="M98 57.6L97 105.9L119 118.6Z" fill="#383838" stroke="#383838"></path><path d="M714 600L721 543.4L709 538.1Z" fill="#212121" stroke="#212121"></path><path d="M817 456.7L745 464.1L824 478.3Z" fill="#161616" stroke="#161616"></path><path d="M88 194.4L61 220.1L88 197.1Z" fill="#444444" stroke="#444444"></path><path d="M88 197.1L61 220.1L95 215.4Z" fill="#444444" stroke="#444444"></path><path d="M46 216L61 220.1L88 194.4Z" fill="#444444" stroke="#444444"></path><path d="M833 183.6L821 161.1L763 197.1Z" fill="#878787" stroke="#878787"></path><path d="M770 140.6L822 109.9L732 80.7Z" fill="#060606" stroke="#060606"></path><path d="M833 183.6L763 197.1L798 250Z" fill="#060606" stroke="#060606"></path><path d="M833 183.6L798 250L851 211.4Z" fill="#444444" stroke="#444444"></path><path d="M811 432.7L823 376.6L790 419.9Z" fill="#878787" stroke="#878787"></path><path d="M790 419.9L823 376.6L773 344.9Z" fill="#5e5e5e" stroke="#5e5e5e"></path><path d="M293 600L296 631.1L329 612.3Z" fill="#878787" stroke="#878787"></path><path d="M329 612.3L296 631.1L507 641.1Z" fill="#161616" stroke="#161616"></path><path d="M218 600L290 477.6L172 487.3Z" fill="#161616" stroke="#161616"></path><path d="M47 296.3L106 345L94 298.7Z" fill="#444444" stroke="#444444"></path><path d="M101 421.4L86 425.3L134 436.7Z" fill="#060606" stroke="#060606"></path><path d="M507 641.1L586 637.1L535 600Z" fill="#878787" stroke="#878787"></path><path d="M624 600L714 600L709 538.1Z" fill="#212121" stroke="#212121"></path><path d="M851 211.4L798 250L900 301.9Z" fill="#444444" stroke="#444444"></path><path d="M745 464.1L737 492.4L824 478.3Z" fill="#444444" stroke="#444444"></path><path d="M779 0L727 -16.1L732 80.7Z" fill="#515151" stroke="#515151"></path><path d="M696 0L727 -16.1L688 0.7Z" fill="#2c2c2c" stroke="#2c2c2c"></path><path d="M822 109.9L770 140.6L821 161.1Z" fill="#5e5e5e" stroke="#5e5e5e"></path><path d="M45 248.1L103 268.9L103 262.9Z" fill="#6b6b6b" stroke="#6b6b6b"></path><path d="M178 585.3L218 600L172 487.3Z" fill="#060606" stroke="#060606"></path><path d="M46 216L45 248.1L61 220.1Z" fill="#797979" stroke="#797979"></path><path d="M61 220.1L45 248.1L103 262.9Z" fill="#383838" stroke="#383838"></path><path d="M254 0L148 0L186 14.7Z" fill="#060606" stroke="#060606"></path><path d="M186 14.7L98 57.6L119 118.6Z" fill="#383838" stroke="#383838"></path><path d="M597 -57.1L148 0L254 0Z" fill="#5e5e5e" stroke="#5e5e5e"></path><path d="M0 206.1L46 216L3 153.3Z" fill="#2c2c2c" stroke="#2c2c2c"></path><path d="M850 109.4L822 109.9L821 161.1Z" fill="#6b6b6b" stroke="#6b6b6b"></path><path d="M148 0L98 57.6L186 14.7Z" fill="#878787" stroke="#878787"></path><path d="M0 206.1L0 237.4L46 216Z" fill="#2c2c2c" stroke="#2c2c2c"></path><path d="M47 296.3L56 387.6L106 345Z" fill="#797979" stroke="#797979"></path><path d="M92 533.3L172 487.3L134 436.7Z" fill="#878787" stroke="#878787"></path><path d="M900 301.9L798 250L800 319.9Z" fill="#060606" stroke="#060606"></path><path d="M867 147.7L850 109.4L821 161.1Z" fill="#161616" stroke="#161616"></path><path d="M92 533.3L134 436.7L68 506.6Z" fill="#212121" stroke="#212121"></path><path d="M836 442.3L845 374.9L823 376.6Z" fill="#2c2c2c" stroke="#2c2c2c"></path><path d="M823 376.6L845 374.9L800 319.9Z" fill="#797979" stroke="#797979"></path><path d="M155 556.3L178 585.3L172 487.3Z" fill="#444444" stroke="#444444"></path><path d="M218 600L184 636.1L296 631.1Z" fill="#161616" stroke="#161616"></path><path d="M777 541.3L737 492.4L726 526.6Z" fill="#797979" stroke="#797979"></path><path d="M836 442.3L855 371.7L845 374.9Z" fill="#060606" stroke="#060606"></path><path d="M836 442.3L823 376.6L811 432.7Z" fill="#2c2c2c" stroke="#2c2c2c"></path><path d="M845 374.9L855 371.7L800 319.9Z" fill="#797979" stroke="#797979"></path><path d="M586 637.1L714 600L624 600Z" fill="#6b6b6b" stroke="#6b6b6b"></path><path d="M721 543.4L777 541.3L726 526.6Z" fill="#444444" stroke="#444444"></path><path d="M824 478.3L836 442.3L817 456.7Z" fill="#797979" stroke="#797979"></path><path d="M817 456.7L836 442.3L811 432.7Z" fill="#383838" stroke="#383838"></path><path d="M753 600L777 541.3L721 543.4Z" fill="#161616" stroke="#161616"></path><path d="M815 37.9L779 0L732 80.7Z" fill="#6b6b6b" stroke="#6b6b6b"></path><path d="M727 -16.1L773 -44.1L597 -57.1Z" fill="#2c2c2c" stroke="#2c2c2c"></path><path d="M117 600L178 585.3L155 556.3Z" fill="#515151" stroke="#515151"></path><path d="M117 600L175 602.3L178 585.3Z" fill="#6b6b6b" stroke="#6b6b6b"></path><path d="M178 585.3L175 602.3L218 600Z" fill="#212121" stroke="#212121"></path><path d="M777 541.3L824 478.3L737 492.4Z" fill="#161616" stroke="#161616"></path><path d="M867 147.7L821 161.1L833 183.6Z" fill="#5e5e5e" stroke="#5e5e5e"></path><path d="M822 109.9L815 37.9L732 80.7Z" fill="#797979" stroke="#797979"></path><path d="M872 168.3L833 183.6L851 211.4Z" fill="#444444" stroke="#444444"></path><path d="M714 600L729 600L721 543.4Z" fill="#2c2c2c" stroke="#2c2c2c"></path><path d="M775 618.1L729 600L714 600Z" fill="#212121" stroke="#212121"></path><path d="M850 109.4L815 37.9L822 109.9Z" fill="#383838" stroke="#383838"></path><path d="M902 180.3L872 168.3L851 211.4Z" fill="#444444" stroke="#444444"></path><path d="M872 168.3L867 147.7L833 183.6Z" fill="#5e5e5e" stroke="#5e5e5e"></path><path d="M68 506.6L134 436.7L86 425.3Z" fill="#060606" stroke="#060606"></path><path d="M897 131.4L869 133.9L900 139.6Z" fill="#5e5e5e" stroke="#5e5e5e"></path><path d="M867 147.7L869 133.9L850 109.4Z" fill="#060606" stroke="#060606"></path><path d="M900 33.7L836 9.7L815 37.9Z" fill="#161616" stroke="#161616"></path><path d="M148 0L70 31.9L98 57.6Z" fill="#444444" stroke="#444444"></path><path d="M98 57.6L70 31.9L97 105.9Z" fill="#6b6b6b" stroke="#6b6b6b"></path><path d="M27 469.1L68 506.6L86 425.3Z" fill="#383838" stroke="#383838"></path><path d="M45 248.1L0 293.3L47 296.3Z" fill="#515151" stroke="#515151"></path><path d="M47 296.3L0 384.9L56 387.6Z" fill="#212121" stroke="#212121"></path><path d="M56 387.6L27 469.1L86 425.3Z" fill="#515151" stroke="#515151"></path><path d="M0 237.4L0 293.3L45 248.1Z" fill="#383838" stroke="#383838"></path><path d="M0 237.4L45 248.1L46 216Z" fill="#878787" stroke="#878787"></path><path d="M836 9.7L804 0L815 37.9Z" fill="#515151" stroke="#515151"></path><path d="M815 37.9L804 0L779 0Z" fill="#444444" stroke="#444444"></path><path d="M779 0L773 -44.1L727 -16.1Z" fill="#383838" stroke="#383838"></path><path d="M46 216L88 194.4L3 153.3Z" fill="#161616" stroke="#161616"></path><path d="M775 618.1L753 600L729 600Z" fill="#212121" stroke="#212121"></path><path d="M729 600L753 600L721 543.4Z" fill="#161616" stroke="#161616"></path><path d="M777 541.3L816 564.3L824 478.3Z" fill="#383838" stroke="#383838"></path><path d="M138 635.1L184 636.1L175 602.3Z" fill="#515151" stroke="#515151"></path><path d="M175 602.3L184 636.1L218 600Z" fill="#212121" stroke="#212121"></path><path d="M296 631.1L184 636.1L507 641.1Z" fill="#161616" stroke="#161616"></path><path d="M117 600L155 556.3L92 533.3Z" fill="#161616" stroke="#161616"></path><path d="M3 153.3L109 140.3L97 105.9Z" fill="#161616" stroke="#161616"></path><path d="M804 0L773 -44.1L779 0Z" fill="#060606" stroke="#060606"></path><path d="M900 348L900 301.9L855 371.7Z" fill="#212121" stroke="#212121"></path><path d="M855 371.7L900 301.9L800 319.9Z" fill="#5e5e5e" stroke="#5e5e5e"></path><path d="M872 168.3L900 163.3L867 147.7Z" fill="#161616" stroke="#161616"></path><path d="M900 348L855 371.7L900 375.4Z" fill="#878787" stroke="#878787"></path><path d="M900 301.9L900 236.1L851 211.4Z" fill="#878787" stroke="#878787"></path><path d="M0 37.6L3 153.3L97 105.9Z" fill="#060606" stroke="#060606"></path><path d="M900 375.4L855 371.7L900 395.7Z" fill="#515151" stroke="#515151"></path><path d="M855 371.7L836 442.3L900 395.7Z" fill="#383838" stroke="#383838"></path><path d="M0 293.3L0 384.9L47 296.3Z" fill="#161616" stroke="#161616"></path><path d="M914 342.7L902 180.3L900 236.1Z" fill="#212121" stroke="#212121"></path><path d="M900 236.1L902 180.3L851 211.4Z" fill="#6b6b6b" stroke="#6b6b6b"></path><path d="M845 0L836 9.7L900 33.7Z" fill="#161616" stroke="#161616"></path><path d="M914 342.7L900 236.1L900 301.9Z" fill="#515151" stroke="#515151"></path><path d="M0 384.9L0 395L56 387.6Z" fill="#878787" stroke="#878787"></path><path d="M0 395L0 397.7L56 387.6Z" fill="#161616" stroke="#161616"></path><path d="M0 443.6L27 469.1L56 387.6Z" fill="#5e5e5e" stroke="#5e5e5e"></path><path d="M101 600L117 600L92 533.3Z" fill="#6b6b6b" stroke="#6b6b6b"></path><path d="M902 180.3L900 166.4L872 168.3Z" fill="#383838" stroke="#383838"></path><path d="M900 395.7L836 442.3L891 462.1Z" fill="#444444" stroke="#444444"></path><path d="M900 348L914 342.7L900 301.9Z" fill="#797979" stroke="#797979"></path><path d="M906 144.6L900 163.3L900 166.4Z" fill="#2c2c2c" stroke="#2c2c2c"></path><path d="M900 166.4L900 163.3L872 168.3Z" fill="#212121" stroke="#212121"></path><path d="M101 600L92 533.3L70 600Z" fill="#878787" stroke="#878787"></path><path d="M775 618.1L778 600L753 600Z" fill="#383838" stroke="#383838"></path><path d="M753 600L778 600L777 541.3Z" fill="#797979" stroke="#797979"></path><path d="M897 131.4L850 109.4L869 133.9Z" fill="#161616" stroke="#161616"></path><path d="M804 0L845 0L773 -44.1Z" fill="#212121" stroke="#212121"></path><path d="M891 462.1L836 442.3L885 482.4Z" fill="#5e5e5e" stroke="#5e5e5e"></path><path d="M900 375.4L914 342.7L900 348Z" fill="#797979" stroke="#797979"></path><path d="M900 139.6L869 133.9L867 147.7Z" fill="#444444" stroke="#444444"></path><path d="M900 139.6L867 147.7L900 163.3Z" fill="#444444" stroke="#444444"></path><path d="M0 37.6L-11 157.7L3 153.3Z" fill="#6b6b6b" stroke="#6b6b6b"></path><path d="M3 153.3L-15 174.4L0 206.1Z" fill="#444444" stroke="#444444"></path><path d="M0 206.1L-15 174.4L0 237.4Z" fill="#212121" stroke="#212121"></path><path d="M0 237.4L-15 174.4L0 293.3Z" fill="#161616" stroke="#161616"></path><path d="M0 293.3L-15 174.4L0 384.9Z" fill="#444444" stroke="#444444"></path><path d="M0 384.9L-15 174.4L0 395Z" fill="#161616" stroke="#161616"></path><path d="M0 395L-15 174.4L0 397.7Z" fill="#797979" stroke="#797979"></path><path d="M-11 157.7L-15 174.4L3 153.3Z" fill="#161616" stroke="#161616"></path><path d="M906 144.6L900 139.6L900 163.3Z" fill="#383838" stroke="#383838"></path><path d="M778 600L816 564.3L777 541.3Z" fill="#6b6b6b" stroke="#6b6b6b"></path><path d="M900 395.7L914 342.7L900 375.4Z" fill="#797979" stroke="#797979"></path><path d="M902 180.3L906 144.6L900 166.4Z" fill="#2c2c2c" stroke="#2c2c2c"></path><path d="M148 0L56 0L70 31.9Z" fill="#515151" stroke="#515151"></path><path d="M70 31.9L0 37.6L97 105.9Z" fill="#515151" stroke="#515151"></path><path d="M0 -6.3L56 0L148 0Z" fill="#444444" stroke="#444444"></path><path d="M914 342.7L906 144.6L902 180.3Z" fill="#444444" stroke="#444444"></path><path d="M900 139.6L906 144.6L897 131.4Z" fill="#797979" stroke="#797979"></path><path d="M900 33.7L815 37.9L850 109.4Z" fill="#2c2c2c" stroke="#2c2c2c"></path><path d="M70 600L92 533.3L0 533.1Z" fill="#060606" stroke="#060606"></path><path d="M117 600L138 635.1L175 602.3Z" fill="#383838" stroke="#383838"></path><path d="M85 626.1L138 635.1L117 600Z" fill="#878787" stroke="#878787"></path><path d="M586 637.1L775 618.1L714 600Z" fill="#878787" stroke="#878787"></path><path d="M778 600L832 600L816 564.3Z" fill="#6b6b6b" stroke="#6b6b6b"></path><path d="M0 397.7L0 443.6L56 387.6Z" fill="#161616" stroke="#161616"></path><path d="M0 533.1L92 533.3L68 506.6Z" fill="#383838" stroke="#383838"></path><path d="M-15 174.4L0 443.6L0 397.7Z" fill="#383838" stroke="#383838"></path><path d="M0 -6.3L50 0L56 0Z" fill="#878787" stroke="#878787"></path><path d="M56 0L50 0L70 31.9Z" fill="#797979" stroke="#797979"></path><path d="M900 33.7L850 109.4L897 131.4Z" fill="#6b6b6b" stroke="#6b6b6b"></path><path d="M836 9.7L845 0L804 0Z" fill="#444444" stroke="#444444"></path><path d="M885 482.4L836 442.3L824 478.3Z" fill="#878787" stroke="#878787"></path><path d="M900 395.7L900 458.6L914 342.7Z" fill="#212121" stroke="#212121"></path><path d="M885 482.4L824 478.3L900 536.1Z" fill="#5e5e5e" stroke="#5e5e5e"></path><path d="M904 523.6L885 482.4L900 536.1Z" fill="#444444" stroke="#444444"></path><path d="M885 482.4L900 458.6L891 462.1Z" fill="#5e5e5e" stroke="#5e5e5e"></path><path d="M891 462.1L900 458.6L900 395.7Z" fill="#444444" stroke="#444444"></path><path d="M0 502.4L68 506.6L27 469.1Z" fill="#060606" stroke="#060606"></path><path d="M101 600L85 626.1L117 600Z" fill="#515151" stroke="#515151"></path><path d="M0 33.9L0 37.6L70 31.9Z" fill="#515151" stroke="#515151"></path><path d="M-11 157.7L-24 0L-15 174.4Z" fill="#2c2c2c" stroke="#2c2c2c"></path><path d="M-15 174.4L0 502.4L0 443.6Z" fill="#212121" stroke="#212121"></path><path d="M0 443.6L0 502.4L27 469.1Z" fill="#060606" stroke="#060606"></path><path d="M50 0L0 33.9L70 31.9Z" fill="#2c2c2c" stroke="#2c2c2c"></path><path d="M0 37.6L-24 0L-11 157.7Z" fill="#383838" stroke="#383838"></path><path d="M775 618.1L832 600L778 600Z" fill="#6b6b6b" stroke="#6b6b6b"></path><path d="M885 482.4L904 523.6L900 458.6Z" fill="#6b6b6b" stroke="#6b6b6b"></path><path d="M48 651.1L85 626.1L70 600Z" fill="#2c2c2c" stroke="#2c2c2c"></path><path d="M70 600L85 626.1L101 600Z" fill="#878787" stroke="#878787"></path><path d="M906 144.6L900 33.7L897 131.4Z" fill="#383838" stroke="#383838"></path><path d="M845 0L900 0L773 -44.1Z" fill="#6b6b6b" stroke="#6b6b6b"></path><path d="M-15 174.4L0 533.1L0 502.4Z" fill="#444444" stroke="#444444"></path><path d="M0 502.4L0 533.1L68 506.6Z" fill="#797979" stroke="#797979"></path><path d="M906 144.6L900 12.9L900 33.7Z" fill="#797979" stroke="#797979"></path><path d="M900 33.7L900 12.9L845 0Z" fill="#212121" stroke="#212121"></path><path d="M0 -6.3L0 0L50 0Z" fill="#060606" stroke="#060606"></path><path d="M50 0L0 0L0 33.9Z" fill="#2c2c2c" stroke="#2c2c2c"></path><path d="M0 33.9L-24 0L0 37.6Z" fill="#6b6b6b" stroke="#6b6b6b"></path><path d="M900 536.1L824 478.3L816 564.3Z" fill="#5e5e5e" stroke="#5e5e5e"></path><path d="M900 458.6L904 523.6L914 342.7Z" fill="#797979" stroke="#797979"></path><path d="M597 -57.1L0 -6.3L148 0Z" fill="#161616" stroke="#161616"></path><path d="M0 0L-24 0L0 33.9Z" fill="#444444" stroke="#444444"></path><path d="M832 600L900 536.1L816 564.3Z" fill="#161616" stroke="#161616"></path><path d="M906 144.6L900 0L900 12.9Z" fill="#383838" stroke="#383838"></path><path d="M900 12.9L900 0L845 0Z" fill="#6b6b6b" stroke="#6b6b6b"></path><path d="M0 -6.3L-24 0L0 0Z" fill="#060606" stroke="#060606"></path><path d="M-15 174.4L0 600L0 533.1Z" fill="#878787" stroke="#878787"></path><path d="M0 533.1L6 600L70 600Z" fill="#212121" stroke="#212121"></path><path d="M6 600L48 651.1L70 600Z" fill="#161616" stroke="#161616"></path><path d="M85 626.1L48 651.1L138 635.1Z" fill="#2c2c2c" stroke="#2c2c2c"></path><path d="M138 635.1L48 651.1L184 636.1Z" fill="#5e5e5e" stroke="#5e5e5e"></path><path d="M184 636.1L48 651.1L507 641.1Z" fill="#878787" stroke="#878787"></path><path d="M0 533.1L0 600L6 600Z" fill="#383838" stroke="#383838"></path><path d="M6 600L0 612.3L48 651.1Z" fill="#797979" stroke="#797979"></path><path d="M0 612.3L0 600L-15 174.4Z" fill="#515151" stroke="#515151"></path><path d="M832 600L900 600L900 536.1Z" fill="#444444" stroke="#444444"></path><path d="M900 536.1L900 600L904 523.6Z" fill="#797979" stroke="#797979"></path><path d="M904 523.6L900 608.3L914 342.7Z" fill="#515151" stroke="#515151"></path><path d="M900 608.3L900 600L832 600Z" fill="#5e5e5e" stroke="#5e5e5e"></path><path d="M-24 0L0 612.3L-15 174.4Z" fill="#6b6b6b" stroke="#6b6b6b"></path><path d="M0 600L0 612.3L6 600Z" fill="#878787" stroke="#878787"></path><path d="M775 618.1L900 608.3L832 600Z" fill="#2c2c2c" stroke="#2c2c2c"></path><path d="M900 600L900 608.3L904 523.6Z" fill="#5e5e5e" stroke="#5e5e5e"></path><path d="M586 637.1L900 608.3L775 618.1Z" fill="#2c2c2c" stroke="#2c2c2c"></path></g></svg>