<svg id="visual" viewBox="0 0 960 540" width="960" height="540" xmlns="http://www.w3.org/2000/svg" xmlns:xlink="http://www.w3.org/1999/xlink" version="1.1"><path d="M0 50L14.5 56.2C29 62.3 58 74.7 87.2 78.2C116.3 81.7 145.7 76.3 174.8 70.2C204 64 233 57 262 58.8C291 60.7 320 71.3 349 75.8C378 80.3 407 78.7 436.2 79.5C465.3 80.3 494.7 83.7 523.8 82.7C553 81.7 582 76.3 611 71C640 65.7 669 60.3 698 64C727 67.7 756 80.3 785.2 82.2C814.3 84 843.7 75 872.8 73.2C902 71.3 931 76.7 945.5 79.3L960 82L960 0L945.5 0C931 0 902 0 872.8 0C843.7 0 814.3 0 785.2 0C756 0 727 0 698 0C669 0 640 0 611 0C582 0 553 0 523.8 0C494.7 0 465.3 0 436.2 0C407 0 378 0 349 0C320 0 291 0 262 0C233 0 204 0 174.8 0C145.7 0 116.3 0 87.2 0C58 0 29 0 14.5 0L0 0Z" fill="#878787"></path><path d="M0 190L14.5 183.7C29 177.3 58 164.7 87.2 161C116.3 157.3 145.7 162.7 174.8 157.3C204 152 233 136 262 143.3C291 150.7 320 181.3 349 183.2C378 185 407 158 436.2 151.7C465.3 145.3 494.7 159.7 523.8 169.5C553 179.3 582 184.7 611 185.5C640 186.3 669 182.7 698 177.3C727 172 756 165 785.2 157.8C814.3 150.7 843.7 143.3 872.8 143.3C902 143.3 931 150.7 945.5 154.3L960 158L960 80L945.5 77.3C931 74.7 902 69.3 872.8 71.2C843.7 73 814.3 82 785.2 80.2C756 78.3 727 65.7 698 62C669 58.3 640 63.7 611 69C582 74.3 553 79.7 523.8 80.7C494.7 81.7 465.3 78.3 436.2 77.5C407 76.7 378 78.3 349 73.8C320 69.3 291 58.7 262 56.8C233 55 204 62 174.8 68.2C145.7 74.3 116.3 79.7 87.2 76.2C58 72.7 29 60.3 14.5 54.2L0 48Z" fill="#656565"></path><path d="M0 314L14.5 315.8C29 317.7 58 321.3 87.2 316C116.3 310.7 145.7 296.3 174.8 277.5C204 258.7 233 235.3 262 249.7C291 264 320 316 349 321.3C378 326.7 407 285.3 436.2 288C465.3 290.7 494.7 337.3 523.8 360.7C553 384 582 384 611 384C640 384 669 384 698 364.3C727 344.7 756 305.3 785.2 298.2C814.3 291 843.7 316 872.8 322.2C902 328.3 931 315.7 945.5 309.3L960 303L960 156L945.5 152.3C931 148.7 902 141.3 872.8 141.3C843.7 141.3 814.3 148.7 785.2 155.8C756 163 727 170 698 175.3C669 180.7 640 184.3 611 183.5C582 182.7 553 177.3 523.8 167.5C494.7 157.7 465.3 143.3 436.2 149.7C407 156 378 183 349 181.2C320 179.3 291 148.7 262 141.3C233 134 204 150 174.8 155.3C145.7 160.7 116.3 155.3 87.2 159C58 162.7 29 175.3 14.5 181.7L0 188Z" fill="#444444"></path><path d="M0 482L14.5 485.5C29 489 58 496 87.2 493.2C116.3 490.3 145.7 477.7 174.8 475.8C204 474 233 483 262 479.5C291 476 320 460 349 454.7C378 449.3 407 454.7 436.2 462.7C465.3 470.7 494.7 481.3 523.8 483.2C553 485 582 478 611 476.3C640 474.7 669 478.3 698 472.8C727 467.3 756 452.7 785.2 449C814.3 445.3 843.7 452.7 872.8 461.7C902 470.7 931 481.3 945.5 486.7L960 492L960 301L945.5 307.3C931 313.7 902 326.3 872.8 320.2C843.7 314 814.3 289 785.2 296.2C756 303.3 727 342.7 698 362.3C669 382 640 382 611 382C582 382 553 382 523.8 358.7C494.7 335.3 465.3 288.7 436.2 286C407 283.3 378 324.7 349 319.3C320 314 291 262 262 247.7C233 233.3 204 256.7 174.8 275.5C145.7 294.3 116.3 308.7 87.2 314C58 319.3 29 315.7 14.5 313.8L0 312Z" fill="#262626"></path><path d="M0 541L14.5 541C29 541 58 541 87.2 541C116.3 541 145.7 541 174.8 541C204 541 233 541 262 541C291 541 320 541 349 541C378 541 407 541 436.2 541C465.3 541 494.7 541 523.8 541C553 541 582 541 611 541C640 541 669 541 698 541C727 541 756 541 785.2 541C814.3 541 843.7 541 872.8 541C902 541 931 541 945.5 541L960 541L960 490L945.5 484.7C931 479.3 902 468.7 872.8 459.7C843.7 450.7 814.3 443.3 785.2 447C756 450.7 727 465.3 698 470.8C669 476.3 640 472.7 611 474.3C582 476 553 483 523.8 481.2C494.7 479.3 465.3 468.7 436.2 460.7C407 452.7 378 447.3 349 452.7C320 458 291 474 262 477.5C233 481 204 472 174.8 473.8C145.7 475.7 116.3 488.3 87.2 491.2C58 494 29 487 14.5 483.5L0 480Z" fill="#060606"></path></svg>