<svg id="visual" viewBox="0 0 675 900" width="675" height="900" xmlns="http://www.w3.org/2000/svg" xmlns:xlink="http://www.w3.org/1999/xlink" version="1.1"><path d="M0 127L16 121C32 115 64 103 96.2 98.5C128.3 94 160.7 97 192.8 98.5C225 100 257 100 289.2 104.5C321.3 109 353.7 118 385.8 119.5C418 121 450 115 482.2 110.5C514.3 106 546.7 103 578.8 103C611 103 643 106 659 107.5L675 109L675 0L659 0C643 0 611 0 578.8 0C546.7 0 514.3 0 482.2 0C450 0 418 0 385.8 0C353.7 0 321.3 0 289.2 0C257 0 225 0 192.8 0C160.7 0 128.3 0 96.2 0C64 0 32 0 16 0L0 0Z" fill="#818181"></path><path d="M0 262L16 259C32 256 64 250 96.2 244C128.3 238 160.7 232 192.8 226C225 220 257 214 289.2 220C321.3 226 353.7 244 385.8 251.5C418 259 450 256 482.2 250C514.3 244 546.7 235 578.8 230.5C611 226 643 226 659 226L675 226L675 107L659 105.5C643 104 611 101 578.8 101C546.7 101 514.3 104 482.2 108.5C450 113 418 119 385.8 117.5C353.7 116 321.3 107 289.2 102.5C257 98 225 98 192.8 96.5C160.7 95 128.3 92 96.2 96.5C64 101 32 113 16 119L0 125Z" fill="#666666"></path><path d="M0 478L16 485.5C32 493 64 508 96.2 517C128.3 526 160.7 529 192.8 529C225 529 257 526 289.2 514C321.3 502 353.7 481 385.8 473.5C418 466 450 472 482.2 482.5C514.3 493 546.7 508 578.8 502C611 496 643 469 659 455.5L675 442L675 224L659 224C643 224 611 224 578.8 228.5C546.7 233 514.3 242 482.2 248C450 254 418 257 385.8 249.5C353.7 242 321.3 224 289.2 218C257 212 225 218 192.8 224C160.7 230 128.3 236 96.2 242C64 248 32 254 16 257L0 260Z" fill="#4d4d4d"></path><path d="M0 658L16 664C32 670 64 682 96.2 683.5C128.3 685 160.7 676 192.8 670C225 664 257 661 289.2 652C321.3 643 353.7 628 385.8 628C418 628 450 643 482.2 655C514.3 667 546.7 676 578.8 667C611 658 643 631 659 617.5L675 604L675 440L659 453.5C643 467 611 494 578.8 500C546.7 506 514.3 491 482.2 480.5C450 470 418 464 385.8 471.5C353.7 479 321.3 500 289.2 512C257 524 225 527 192.8 527C160.7 527 128.3 524 96.2 515C64 506 32 491 16 483.5L0 476Z" fill="#353535"></path><path d="M0 901L16 901C32 901 64 901 96.2 901C128.3 901 160.7 901 192.8 901C225 901 257 901 289.2 901C321.3 901 353.7 901 385.8 901C418 901 450 901 482.2 901C514.3 901 546.7 901 578.8 901C611 901 643 901 659 901L675 901L675 602L659 615.5C643 629 611 656 578.8 665C546.7 674 514.3 665 482.2 653C450 641 418 626 385.8 626C353.7 626 321.3 641 289.2 650C257 659 225 662 192.8 668C160.7 674 128.3 683 96.2 681.5C64 680 32 668 16 662L0 656Z" fill="#1f1f1f"></path></svg>