<svg width="284" height="104" viewBox="0 0 284 104" fill="none" xmlns="http://www.w3.org/2000/svg">
<g clip-path="url(#clip0_980_11)">
<path d="M241.953 0C248.686 2.99298e-05 255.322 0.707149 261.864 2.12207C265.537 2.91641 269.001 3.94875 272.255 5.21875C276.51 6.87954 278.171 11.8106 276.412 16.0264L273.105 23.9521C271.101 28.7555 265.469 30.7922 260.57 29.0342C258.704 28.3645 256.86 27.7897 255.037 27.3086C250.487 26.0824 246.029 25.4688 241.668 25.4688C238.445 25.4688 235.885 25.7523 233.989 26.3184C232.093 26.8843 230.717 27.6387 229.865 28.582C229.106 29.5253 228.727 30.5633 228.727 31.6953C228.727 33.3929 229.722 34.7604 231.712 35.7979C233.704 36.7411 236.311 37.5438 239.534 38.2041C242.853 38.8644 246.457 39.5714 250.344 40.3262C254.326 41.0808 258.26 42.1188 262.148 43.4395C266.035 44.76 269.592 46.5051 272.815 48.6748C276.134 50.8443 278.788 53.674 280.778 57.1641C282.771 60.6541 283.766 64.9935 283.766 70.1816C283.766 76.2187 282.011 81.7841 278.504 86.8779C275.09 91.8774 269.97 95.934 263.144 99.0469C256.317 102.065 247.737 103.574 237.402 103.574C229.058 103.574 220.998 102.632 213.224 100.745C208.74 99.6572 204.714 98.3804 201.146 96.916C196.942 95.1912 195.41 90.2685 197.254 86.1162L200.773 78.1904C202.943 73.3056 208.868 71.4133 213.839 73.3779C216.013 74.2374 218.274 75.0115 220.62 75.7002C226.499 77.3038 232.188 78.1055 237.688 78.1055C240.91 78.1055 243.423 77.9164 245.225 77.5391C247.121 77.0675 248.495 76.4547 249.349 75.7002C250.202 74.8512 250.629 73.8605 250.629 72.7285C250.629 70.9363 249.634 69.5209 247.642 68.4834C245.651 67.4457 242.997 66.5969 239.678 65.9365C236.455 65.1819 232.898 64.4274 229.012 63.6729C225.123 62.824 221.19 61.7396 217.207 60.4189C213.321 59.0983 209.717 57.3522 206.397 55.1826C203.455 53.2021 202.213 52.177 200.504 49.3584C200.161 48.7933 199.867 48.1818 199.799 47.5244C199.188 41.5995 209.944 37.8396 209.944 32.8271C209.944 26.6957 196.68 22 201.5 15C205.008 9.90619 209.385 7.54688 216.212 4.52832C223.133 1.50982 231.713 0 241.953 0ZM80.0771 6.32715C84.0207 4.73594 88.3223 7.63909 88.3223 11.8916V29.9883C88.3223 33.302 85.6359 35.9882 82.3223 35.9883H65.3574C62.4334 35.9883 59.9346 38.0962 59.4424 40.9785L49.9141 96.8018C48.7753 103.473 39.1835 103.448 38.0791 96.7715L28.8584 41.0098C28.3794 38.1132 25.8744 35.9883 22.9385 35.9883H6C2.68629 35.9883 0 33.302 0 29.9883V11.9297C0.000170985 7.66693 4.32093 4.76394 8.26758 6.375L41.6504 20.002C43.096 20.5921 44.7151 20.5959 46.1631 20.0117L80.0771 6.32715ZM141.653 17C149.4 17 156.22 18.4165 162.112 21.249C168.005 24.0158 172.607 27.9683 175.917 33.1064C179.227 38.2446 170.163 44.3709 170.163 51.4854C170.163 58.6655 179.227 64.8575 175.917 70.0615C172.607 75.1997 168.005 79.185 162.112 82.0176C156.22 84.7843 149.4 86.168 141.653 86.168H114.404C110.203 86.1678 107.334 81.8818 108.827 77.9551C108.941 77.6552 109.08 77.3591 109.245 77.084C110.468 75.0467 111.415 74.1031 112.98 72.8945C113.324 72.6296 113.643 72.3344 113.926 72.0059L118.678 66.4834C118.892 66.2346 119.085 65.9677 119.255 65.6865C120.052 64.3626 120.293 62.7762 119.924 61.2754L117.515 51.4854L108.424 24.9443C107.09 21.0502 109.984 17 114.101 17H141.653ZM136.828 35.1816C133.515 35.1818 130.828 37.8681 130.828 41.1816V61.9863C130.828 65.2999 133.515 67.9861 136.828 67.9863H140.66C143.971 67.9863 146.851 67.3609 149.301 66.1094C151.817 64.8578 153.77 63.0133 155.16 60.5762C156.55 58.073 157.246 55.0424 157.246 51.4854C157.246 47.9939 156.55 45.029 155.16 42.5918C153.77 40.1547 151.817 38.3102 149.301 37.0586C146.851 35.807 143.971 35.1816 140.66 35.1816H136.828Z" fill="url(#paint0_linear_980_11)"/>
</g>
<defs>
<linearGradient id="paint0_linear_980_11" x1="2.04913" y1="5.8897" x2="254.122" y2="106.114" gradientUnits="userSpaceOnUse">
<stop stop-color="#5E17EB"/>
<stop offset="1" stop-color="#BF028A"/>
</linearGradient>
<clipPath id="clip0_980_11">
<rect width="284" height="104" fill="white"/>
</clipPath>
</defs>
</svg>
