<svg width="420" height="420" viewBox="0 0 420 420" fill="none" xmlns="http://www.w3.org/2000/svg">
<path d="M0 210C0 94.0202 94.0202 0 210 0C325.98 0 420 94.0202 420 210C420 325.98 325.98 420 210 420C94.0202 420 0 325.98 0 210Z" fill="url(#paint0_linear_947_11)"/>
<path d="M309.953 160C316.686 160 323.322 160.707 329.864 162.122C333.537 162.916 337.001 163.949 340.255 165.219C344.51 166.88 346.171 171.811 344.412 176.026L341.105 183.952C339.101 188.756 333.469 190.792 328.57 189.034C326.704 188.364 324.86 187.79 323.037 187.309C318.487 186.082 314.029 185.469 309.668 185.469C306.445 185.469 303.885 185.752 301.989 186.318C300.093 186.884 298.717 187.639 297.865 188.582C297.106 189.525 296.727 190.563 296.727 191.695C296.727 193.393 297.722 194.76 299.712 195.798C301.704 196.741 304.311 197.544 307.534 198.204C310.853 198.864 314.457 199.571 318.344 200.326C322.326 201.081 326.26 202.119 330.148 203.439C334.035 204.76 337.592 206.505 340.815 208.675C344.134 210.844 346.788 213.674 348.778 217.164C350.771 220.654 351.766 224.993 351.766 230.182C351.766 236.219 350.011 241.784 346.504 246.878C343.09 251.877 337.97 255.934 331.144 259.047C324.317 262.065 315.737 263.574 305.402 263.574C297.058 263.574 288.998 262.632 281.224 260.745C276.74 259.657 272.714 258.38 269.146 256.916C264.942 255.191 263.41 250.269 265.254 246.116L268.773 238.19C270.943 233.306 276.868 231.413 281.839 233.378C284.013 234.237 286.274 235.011 288.62 235.7C294.499 237.304 300.188 238.105 305.688 238.105C308.91 238.105 311.423 237.916 313.225 237.539C315.121 237.067 316.495 236.455 317.349 235.7C318.202 234.851 318.629 233.861 318.629 232.729C318.629 230.936 317.634 229.521 315.642 228.483C313.651 227.446 310.997 226.597 307.678 225.937C304.455 225.182 300.898 224.427 297.012 223.673C293.123 222.824 289.19 221.74 285.207 220.419C281.321 219.098 277.717 217.352 274.397 215.183C271.455 213.202 270.213 212.177 268.504 209.358C268.161 208.793 267.867 208.182 267.799 207.524C267.188 201.6 277.944 197.84 277.944 192.827C277.944 186.696 264.68 182 269.5 175C273.008 169.906 277.385 167.547 284.212 164.528C291.133 161.51 299.713 160 309.953 160ZM148.077 166.327C152.021 164.736 156.322 167.639 156.322 171.892V189.988C156.322 193.302 153.636 195.988 150.322 195.988H133.357C130.433 195.988 127.935 198.096 127.442 200.979L117.914 256.802C116.775 263.473 107.184 263.448 106.079 256.771L96.8584 201.01C96.3794 198.113 93.8744 195.988 90.9385 195.988H74C70.6863 195.988 68 193.302 68 189.988V171.93C68.0002 167.667 72.3209 164.764 76.2676 166.375L109.65 180.002C111.096 180.592 112.715 180.596 114.163 180.012L148.077 166.327ZM209.653 177C217.4 177 224.22 178.416 230.112 181.249C236.005 184.016 240.607 187.968 243.917 193.106C247.227 198.245 238.163 204.371 238.163 211.485C238.163 218.665 247.227 224.857 243.917 230.062C240.607 235.2 236.005 239.185 230.112 242.018C224.22 244.784 217.4 246.168 209.653 246.168H182.404C178.203 246.168 175.334 241.882 176.827 237.955C176.941 237.655 177.08 237.359 177.245 237.084C178.468 235.047 179.415 234.103 180.98 232.895C181.324 232.63 181.643 232.334 181.926 232.006L186.678 226.483C186.892 226.235 187.085 225.968 187.255 225.687C188.052 224.363 188.293 222.776 187.924 221.275L185.515 211.485L176.424 184.944C175.09 181.05 177.984 177 182.101 177H209.653ZM204.828 195.182C201.515 195.182 198.828 197.868 198.828 201.182V221.986C198.828 225.3 201.515 227.986 204.828 227.986H208.66C211.971 227.986 214.851 227.361 217.301 226.109C219.817 224.858 221.77 223.013 223.16 220.576C224.55 218.073 225.246 215.042 225.246 211.485C225.246 207.994 224.55 205.029 223.16 202.592C221.77 200.155 219.817 198.31 217.301 197.059C214.851 195.807 211.971 195.182 208.66 195.182H204.828Z" fill="url(#paint1_linear_947_11)"/>
<defs>
<linearGradient id="paint0_linear_947_11" x1="159.151" y1="258.576" x2="269.188" y2="340.5" gradientUnits="userSpaceOnUse">
<stop offset="1"/>
</linearGradient>
<linearGradient id="paint1_linear_947_11" x1="70.0491" y1="165.89" x2="322.122" y2="266.114" gradientUnits="userSpaceOnUse">
<stop stop-color="#5E17EB"/>
<stop offset="1" stop-color="#BF028A"/>
</linearGradient>
</defs>
</svg>
