<svg width="512" height="512" viewBox="0 0 512 512" fill="none" xmlns="http://www.w3.org/2000/svg">
<path d="M473.042 27.4092C478.594 25.3483 484.5 29.4555 484.5 35.3779V169.038C484.5 173.732 480.694 177.538 476 177.538H347.916C342.595 177.538 337.969 181.188 336.731 186.363L263.089 494.333C261.001 503.062 248.567 503.018 246.541 494.274L175.23 186.442C174.023 181.229 169.379 177.538 164.027 177.538H36C31.3056 177.538 27.5001 173.732 27.5 169.038V35.4365C27.5 29.5003 33.4309 25.3927 38.9883 27.4795L250.646 106.954C253.238 107.927 256.094 107.933 258.689 106.97L473.042 27.4092Z" fill="url(#paint0_linear_1070_11)" stroke="white" stroke-width="3"/>
<defs>
<linearGradient id="paint0_linear_1070_11" x1="26" y1="75.2589" x2="334.66" y2="302.095" gradientUnits="userSpaceOnUse">
<stop offset="0.445" stop-color="#8F12DC"/>
</linearGradient>
</defs>
</svg>
