<svg id="visual" viewBox="0 0 675 900" width="675" height="900" xmlns="http://www.w3.org/2000/svg" xmlns:xlink="http://www.w3.org/1999/xlink" version="1.1"><rect x="0" y="0" width="675" height="900" fill="#1f1f1f"></rect><path d="M0 689L16 674.8C32 660.7 64 632.3 96.2 638C128.3 643.7 160.7 683.3 192.8 690.5C225 697.7 257 672.3 289.2 680C321.3 687.7 353.7 728.3 385.8 747.8C418 767.3 450 765.7 482.2 761C514.3 756.3 546.7 748.7 578.8 739C611 729.3 643 717.7 659 711.8L675 706L675 901L659 901C643 901 611 901 578.8 901C546.7 901 514.3 901 482.2 901C450 901 418 901 385.8 901C353.7 901 321.3 901 289.2 901C257 901 225 901 192.8 901C160.7 901 128.3 901 96.2 901C64 901 32 901 16 901L0 901Z" fill="#8d8d8d" stroke-linecap="round" stroke-linejoin="miter"></path></svg>