<svg id="visual" viewBox="0 0 675 900" width="675" height="900" xmlns="http://www.w3.org/2000/svg" xmlns:xlink="http://www.w3.org/1999/xlink" version="1.1"><rect x="0" y="0" width="675" height="900" fill="#1f1f1f"></rect><path d="M0 550L16 551.3C32 552.7 64 555.3 96.2 561C128.3 566.7 160.7 575.3 192.8 586C225 596.7 257 609.3 289.2 618.5C321.3 627.7 353.7 633.3 385.8 629.2C418 625 450 611 482.2 608.8C514.3 606.7 546.7 616.3 578.8 608.3C611 600.3 643 574.7 659 561.8L675 549L675 901L659 901C643 901 611 901 578.8 901C546.7 901 514.3 901 482.2 901C450 901 418 901 385.8 901C353.7 901 321.3 901 289.2 901C257 901 225 901 192.8 901C160.7 901 128.3 901 96.2 901C64 901 32 901 16 901L0 901Z" fill="#5c5c5c"></path><path d="M0 669L16 675C32 681 64 693 96.2 696.8C128.3 700.7 160.7 696.3 192.8 696.2C225 696 257 700 289.2 697C321.3 694 353.7 684 385.8 678.3C418 672.7 450 671.3 482.2 671.2C514.3 671 546.7 672 578.8 668.5C611 665 643 657 659 653L675 649L675 901L659 901C643 901 611 901 578.8 901C546.7 901 514.3 901 482.2 901C450 901 418 901 385.8 901C353.7 901 321.3 901 289.2 901C257 901 225 901 192.8 901C160.7 901 128.3 901 96.2 901C64 901 32 901 16 901L0 901Z" fill="#727272"></path><path d="M0 767L16 754.5C32 742 64 717 96.2 703.5C128.3 690 160.7 688 192.8 684.2C225 680.3 257 674.7 289.2 672.5C321.3 670.3 353.7 671.7 385.8 683.8C418 696 450 719 482.2 724.7C514.3 730.3 546.7 718.7 578.8 719.3C611 720 643 733 659 739.5L675 746L675 901L659 901C643 901 611 901 578.8 901C546.7 901 514.3 901 482.2 901C450 901 418 901 385.8 901C353.7 901 321.3 901 289.2 901C257 901 225 901 192.8 901C160.7 901 128.3 901 96.2 901C64 901 32 901 16 901L0 901Z" fill="#888888"></path><path d="M0 805L16 801.7C32 798.3 64 791.7 96.2 788.5C128.3 785.3 160.7 785.7 192.8 783.7C225 781.7 257 777.3 289.2 777.5C321.3 777.7 353.7 782.3 385.8 782.3C418 782.3 450 777.7 482.2 767.7C514.3 757.7 546.7 742.3 578.8 741.3C611 740.3 643 753.7 659 760.3L675 767L675 901L659 901C643 901 611 901 578.8 901C546.7 901 514.3 901 482.2 901C450 901 418 901 385.8 901C353.7 901 321.3 901 289.2 901C257 901 225 901 192.8 901C160.7 901 128.3 901 96.2 901C64 901 32 901 16 901L0 901Z" fill="#9f9f9f"></path><path d="M0 861L16 860.7C32 860.3 64 859.7 96.2 851.3C128.3 843 160.7 827 192.8 817.3C225 807.7 257 804.3 289.2 800.5C321.3 796.7 353.7 792.3 385.8 796.3C418 800.3 450 812.7 482.2 816.8C514.3 821 546.7 817 578.8 821.5C611 826 643 839 659 845.5L675 852L675 901L659 901C643 901 611 901 578.8 901C546.7 901 514.3 901 482.2 901C450 901 418 901 385.8 901C353.7 901 321.3 901 289.2 901C257 901 225 901 192.8 901C160.7 901 128.3 901 96.2 901C64 901 32 901 16 901L0 901Z" fill="#b7b7b7"></path></svg>