<svg id="visual" viewBox="0 0 675 900" width="675" height="900" xmlns="http://www.w3.org/2000/svg" xmlns:xlink="http://www.w3.org/1999/xlink" version="1.1"><g stroke-width="1" stroke-linejoin="bevel"><path d="M263 495L412 713L418 411Z" fill="#535353" stroke="#535353"></path><path d="M263 495L269 721L412 713Z" fill="#292929" stroke="#292929"></path><path d="M412 713L675 683L418 411Z" fill="#757575" stroke="#757575"></path><path d="M675 683L675 431L418 411Z" fill="#484848" stroke="#484848"></path><path d="M269 721L400 900L412 713Z" fill="#8d8d8d" stroke="#8d8d8d"></path><path d="M412 713L675 900L675 683Z" fill="#757575" stroke="#757575"></path><path d="M675 431L490 213L418 411Z" fill="#484848" stroke="#484848"></path><path d="M418 411L199 184L263 495Z" fill="#3d3d3d" stroke="#3d3d3d"></path><path d="M0 720L263 900L269 721Z" fill="#535353" stroke="#535353"></path><path d="M269 721L263 900L400 900Z" fill="#535353" stroke="#535353"></path><path d="M199 184L0 467L263 495Z" fill="#1f1f1f" stroke="#1f1f1f"></path><path d="M263 495L0 720L269 721Z" fill="#333333" stroke="#333333"></path><path d="M675 431L675 237L490 213Z" fill="#333333" stroke="#333333"></path><path d="M490 213L199 184L418 411Z" fill="#484848" stroke="#484848"></path><path d="M0 467L0 720L263 495Z" fill="#1f1f1f" stroke="#1f1f1f"></path><path d="M400 900L675 900L412 713Z" fill="#484848" stroke="#484848"></path><path d="M0 720L0 900L263 900Z" fill="#333333" stroke="#333333"></path><path d="M199 184L0 217L0 467Z" fill="#818181" stroke="#818181"></path><path d="M675 0L422 0L490 213Z" fill="#8d8d8d" stroke="#8d8d8d"></path><path d="M490 213L422 0L199 184Z" fill="#535353" stroke="#535353"></path><path d="M199 184L0 0L0 217Z" fill="#3d3d3d" stroke="#3d3d3d"></path><path d="M422 0L262 0L199 184Z" fill="#5e5e5e" stroke="#5e5e5e"></path><path d="M675 237L675 0L490 213Z" fill="#535353" stroke="#535353"></path><path d="M262 0L0 0L199 184Z" fill="#757575" stroke="#757575"></path></g></svg>