<svg id="visual" viewBox="0 0 675 900" width="675" height="900" xmlns="http://www.w3.org/2000/svg" xmlns:xlink="http://www.w3.org/1999/xlink" version="1.1"><rect x="0" y="0" width="675" height="900" fill="#1f1f1f"></rect><path d="M0 592L96 621L193 606L289 622L386 572L482 598L579 590L675 619L675 901L579 901L482 901L386 901L289 901L193 901L96 901L0 901Z" fill="#8d8d8d"></path><path d="M0 662L96 670L193 634L289 635L386 686L482 658L579 651L675 673L675 901L579 901L482 901L386 901L289 901L193 901L96 901L0 901Z" fill="#777777"></path><path d="M0 717L96 697L193 718L289 691L386 745L482 741L579 715L675 702L675 901L579 901L482 901L386 901L289 901L193 901L96 901L0 901Z" fill="#626262"></path><path d="M0 766L96 767L193 767L289 751L386 770L482 805L579 750L675 796L675 901L579 901L482 901L386 901L289 901L193 901L96 901L0 901Z" fill="#4e4e4e"></path><path d="M0 838L96 855L193 840L289 833L386 844L482 829L579 840L675 857L675 901L579 901L482 901L386 901L289 901L193 901L96 901L0 901Z" fill="#3b3b3b"></path></svg>