<svg id="visual" viewBox="0 0 960 540" width="960" height="540" xmlns="http://www.w3.org/2000/svg" xmlns:xlink="http://www.w3.org/1999/xlink" version="1.1"><rect x="0" y="0" width="960" height="540" fill="#060606"></rect><defs><linearGradient id="grad1_0" x1="43.8%" y1="0%" x2="100%" y2="100%"><stop offset="14.444444444444446%" stop-color="#878787" stop-opacity="1"></stop><stop offset="85.55555555555554%" stop-color="#878787" stop-opacity="1"></stop></linearGradient></defs><defs><linearGradient id="grad1_1" x1="43.8%" y1="0%" x2="100%" y2="100%"><stop offset="14.444444444444446%" stop-color="#878787" stop-opacity="1"></stop><stop offset="85.55555555555554%" stop-color="#6b6b6b" stop-opacity="1"></stop></linearGradient></defs><defs><linearGradient id="grad1_2" x1="43.8%" y1="0%" x2="100%" y2="100%"><stop offset="14.444444444444446%" stop-color="#515151" stop-opacity="1"></stop><stop offset="85.55555555555554%" stop-color="#6b6b6b" stop-opacity="1"></stop></linearGradient></defs><defs><linearGradient id="grad1_3" x1="43.8%" y1="0%" x2="100%" y2="100%"><stop offset="14.444444444444446%" stop-color="#515151" stop-opacity="1"></stop><stop offset="85.55555555555554%" stop-color="#383838" stop-opacity="1"></stop></linearGradient></defs><defs><linearGradient id="grad1_4" x1="43.8%" y1="0%" x2="100%" y2="100%"><stop offset="14.444444444444446%" stop-color="#212121" stop-opacity="1"></stop><stop offset="85.55555555555554%" stop-color="#383838" stop-opacity="1"></stop></linearGradient></defs><defs><linearGradient id="grad1_5" x1="43.8%" y1="0%" x2="100%" y2="100%"><stop offset="14.444444444444446%" stop-color="#212121" stop-opacity="1"></stop><stop offset="85.55555555555554%" stop-color="#060606" stop-opacity="1"></stop></linearGradient></defs><defs><linearGradient id="grad2_0" x1="0%" y1="0%" x2="56.3%" y2="100%"><stop offset="14.444444444444446%" stop-color="#878787" stop-opacity="1"></stop><stop offset="85.55555555555554%" stop-color="#878787" stop-opacity="1"></stop></linearGradient></defs><defs><linearGradient id="grad2_1" x1="0%" y1="0%" x2="56.3%" y2="100%"><stop offset="14.444444444444446%" stop-color="#6b6b6b" stop-opacity="1"></stop><stop offset="85.55555555555554%" stop-color="#878787" stop-opacity="1"></stop></linearGradient></defs><defs><linearGradient id="grad2_2" x1="0%" y1="0%" x2="56.3%" y2="100%"><stop offset="14.444444444444446%" stop-color="#6b6b6b" stop-opacity="1"></stop><stop offset="85.55555555555554%" stop-color="#515151" stop-opacity="1"></stop></linearGradient></defs><defs><linearGradient id="grad2_3" x1="0%" y1="0%" x2="56.3%" y2="100%"><stop offset="14.444444444444446%" stop-color="#383838" stop-opacity="1"></stop><stop offset="85.55555555555554%" stop-color="#515151" stop-opacity="1"></stop></linearGradient></defs><defs><linearGradient id="grad2_4" x1="0%" y1="0%" x2="56.3%" y2="100%"><stop offset="14.444444444444446%" stop-color="#383838" stop-opacity="1"></stop><stop offset="85.55555555555554%" stop-color="#212121" stop-opacity="1"></stop></linearGradient></defs><defs><linearGradient id="grad2_5" x1="0%" y1="0%" x2="56.3%" y2="100%"><stop offset="14.444444444444446%" stop-color="#060606" stop-opacity="1"></stop><stop offset="85.55555555555554%" stop-color="#212121" stop-opacity="1"></stop></linearGradient></defs><g transform="translate(960, 0)"><path d="M0 540C-32.7 519.4 -65.3 498.9 -96.8 486.5C-128.2 474.1 -158.4 469.9 -192.9 465.6C-227.3 461.4 -266.1 457.2 -290.6 434.9C-315 412.5 -325.2 372.2 -345.1 345.1C-365 318 -394.6 304.1 -425.7 284.5C-456.9 264.8 -489.5 239.2 -498.9 206.6C-508.3 174.1 -494.3 134.5 -497.3 98.9C-500.2 63.3 -520.1 31.7 -540 0L0 0Z" fill="#161616"></path><path d="M0 450C-27.2 432.9 -54.4 415.7 -80.6 405.4C-106.8 395.1 -132 391.6 -160.7 388C-189.5 384.5 -221.8 381 -242.1 362.4C-262.5 343.8 -271 310.1 -287.6 287.6C-304.1 265 -328.8 253.5 -354.8 237C-380.7 220.6 -407.9 199.3 -415.7 172.2C-423.5 145.1 -411.9 112.1 -414.4 82.4C-416.9 52.8 -433.4 26.4 -450 0L0 0Z" fill="#2c2c2c"></path><path d="M0 360C-21.8 346.3 -43.6 332.6 -64.5 324.3C-85.5 316.1 -105.6 313.2 -128.6 310.4C-151.6 307.6 -177.4 304.8 -193.7 289.9C-210 275 -216.8 248.1 -230 230C-243.3 212 -263 202.8 -283.8 189.6C-304.6 176.5 -326.4 159.5 -332.6 137.8C-338.8 116.1 -329.5 89.7 -331.5 65.9C-333.5 42.2 -346.7 21.1 -360 0L0 0Z" fill="#444444"></path><path d="M0 270C-16.3 259.7 -32.7 249.4 -48.4 243.2C-64.1 237 -79.2 234.9 -96.4 232.8C-113.7 230.7 -133.1 228.6 -145.3 217.4C-157.5 206.3 -162.6 186.1 -172.5 172.5C-182.5 159 -197.3 152.1 -212.9 142.2C-228.4 132.4 -244.8 119.6 -249.4 103.3C-254.1 87 -247.1 67.3 -248.6 49.5C-250.1 31.7 -260.1 15.8 -270 0L0 0Z" fill="#5e5e5e"></path><path d="M0 180C-10.9 173.1 -21.8 166.3 -32.3 162.2C-42.7 158 -52.8 156.6 -64.3 155.2C-75.8 153.8 -88.7 152.4 -96.9 145C-105 137.5 -108.4 124.1 -115 115C-121.7 106 -131.5 101.4 -141.9 94.8C-152.3 88.3 -163.2 79.7 -166.3 68.9C-169.4 58 -164.8 44.8 -165.8 33C-166.7 21.1 -173.4 10.6 -180 0L0 0Z" fill="#797979"></path><path d="M0 90C-5.4 86.6 -10.9 83.1 -16.1 81.1C-21.4 79 -26.4 78.3 -32.1 77.6C-37.9 76.9 -44.4 76.2 -48.4 72.5C-52.5 68.8 -54.2 62 -57.5 57.5C-60.8 53 -65.8 50.7 -71 47.4C-76.1 44.1 -81.6 39.9 -83.1 34.4C-84.7 29 -82.4 22.4 -82.9 16.5C-83.4 10.6 -86.7 5.3 -90 0L0 0Z" fill="#878787"></path></g><g transform="translate(0, 540)"><path d="M0 -540C33.3 -529.2 66.6 -518.5 102.2 -513.9C137.8 -509.4 175.8 -511.1 204.4 -493.4C232.9 -475.6 252.2 -438.5 275 -411.6C297.8 -384.7 324.2 -368.1 344.4 -344.4C364.5 -320.6 378.3 -289.7 391.6 -261.7C404.9 -233.6 417.8 -208.5 444.4 -184.1C471 -159.6 511.4 -135.9 529.6 -105.3C547.9 -74.8 543.9 -37.4 540 0L0 0Z" fill="#161616"></path><path d="M0 -450C27.8 -441 55.5 -432.1 85.2 -428.3C114.9 -424.5 146.5 -425.9 170.3 -411.1C194.1 -396.3 210.2 -365.4 229.2 -343C248.2 -320.6 270.2 -306.8 287 -287C303.7 -267.2 315.2 -241.4 326.4 -218.1C337.5 -194.7 348.1 -173.8 370.3 -153.4C392.5 -133 426.2 -113.3 441.4 -87.8C456.5 -62.3 453.3 -31.2 450 0L0 0Z" fill="#2c2c2c"></path><path d="M0 -360C22.2 -352.8 44.4 -345.6 68.2 -342.6C91.9 -339.6 117.2 -340.7 136.2 -328.9C155.3 -317.1 168.1 -292.3 183.3 -274.4C198.6 -256.5 216.2 -245.4 229.6 -229.6C243 -213.7 252.2 -193.1 261.1 -174.4C270 -155.8 278.5 -139 296.3 -122.7C314 -106.4 340.9 -90.6 353.1 -70.2C365.2 -49.9 362.6 -24.9 360 0L0 0Z" fill="#444444"></path><path d="M0 -270C16.7 -264.6 33.3 -259.2 51.1 -257C68.9 -254.7 87.9 -255.5 102.2 -246.7C116.5 -237.8 126.1 -219.2 137.5 -205.8C148.9 -192.4 162.1 -184.1 172.2 -172.2C182.2 -160.3 189.1 -144.8 195.8 -130.8C202.5 -116.8 208.9 -104.3 222.2 -92C235.5 -79.8 255.7 -68 264.8 -52.7C273.9 -37.4 272 -18.7 270 0L0 0Z" fill="#5e5e5e"></path><path d="M0 -180C11.1 -176.4 22.2 -172.8 34.1 -171.3C45.9 -169.8 58.6 -170.4 68.1 -164.5C77.6 -158.5 84.1 -146.2 91.7 -137.2C99.3 -128.2 108.1 -122.7 114.8 -114.8C121.5 -106.9 126.1 -96.6 130.5 -87.2C135 -77.9 139.3 -69.5 148.1 -61.4C157 -53.2 170.5 -45.3 176.5 -35.1C182.6 -24.9 181.3 -12.5 180 0L0 0Z" fill="#797979"></path><path d="M0 -90C5.6 -88.2 11.1 -86.4 17 -85.7C23 -84.9 29.3 -85.2 34.1 -82.2C38.8 -79.3 42 -73.1 45.8 -68.6C49.6 -64.1 54 -61.4 57.4 -57.4C60.7 -53.4 63 -48.3 65.3 -43.6C67.5 -38.9 69.6 -34.8 74.1 -30.7C78.5 -26.6 85.2 -22.7 88.3 -17.6C91.3 -12.5 90.7 -6.2 90 0L0 0Z" fill="#878787"></path></g></svg>